<svg viewBox="0 0 640 280" width="640" height="280" xmlns="http://www.w3.org/2000/svg">
  <style>
    :root { --empty-cell: #161b22; --score-color: #8b949e; }
    @media (prefers-color-scheme: light) {
      :root { --empty-cell: #ebedf0; --score-color: #57606a; }
    }
    .bg { fill: transparent; }
    .empty-cell { fill: var(--empty-cell); }
    .score-txt { fill: var(--score-color); font-family: -apple-system, BlinkMacSystemFont, "Segoe UI", Helvetica, Arial, sans-serif; font-size: 10px; font-weight: bold; }
    .heart { fill: #ff6b6b; }
    .ball-node { fill: #39d353; }
    .ball-container { animation: ball-motion 3.9s linear infinite; }
    .paddle-container { animation: paddle-motion 3.9s linear infinite; }
    .roll-d100 { animation: score-d100 3.9s linear infinite; }
    .roll-d10 { animation: score-d10 3.9s linear infinite; }
    .roll-d1 { animation: score-d1 3.9s linear infinite; }
    .heart-1 { animation: heart-life-1 3.9s linear infinite; }
    .heart-2 { animation: heart-life-2 3.9s linear infinite; }
    .heart-3 { animation: heart-life-3 3.9s linear infinite; }
    .synthwave-grid { animation: neon-fade 3.2s ease-in-out infinite; }
    @keyframes flame-flicker { 0% { transform: scaleY(0.75); opacity: 0.8; } 100% { transform: scaleY(1.35); opacity: 1; } }
    @keyframes spark-drift { 0% { transform: translateY(0px) scale(0.7); opacity: 1; } 100% { transform: translateY(8px) scale(1.3); opacity: 0; } }
    @keyframes star-twinkle { 0%, 100% { opacity: 0.15; } 50% { opacity: 0.95; } }
    @keyframes cloud-loop { 0% { transform: translateX(-110px); } 100% { transform: translateX(680px); } }
    @keyframes neon-fade { 0%, 100% { opacity: 0.28; } 50% { opacity: 0.92; } }
    @keyframes pulse-glow { 0% { opacity: 0.35; transform: scale(0.9); } 100% { opacity: 0.85; transform: scale(1.15); } }
    @keyframes matrix-stream { 0% { transform: translateY(0); } 100% { transform: translateY(340px); } }
    @keyframes sakura-flutter { 0% { transform: translate(0,-20px) rotate(0deg); opacity: 0; } 10% { opacity: 0.9; } 50% { transform: translate(28px,150px) rotate(180deg); } 90% { opacity: 0.9; } 100% { transform: translate(-12px,320px) rotate(360deg); opacity: 0; } }
    @keyframes ball-motion {
      0.0% { transform: translate(169.6px, 243.7px); }
      0.99% { transform: translate(175.1px, 240.3px); }
      1.98% { transform: translate(180.7px, 237.0px); }
      2.97% { transform: translate(186.3px, 233.6px); }
      3.96% { transform: translate(191.9px, 230.3px); }
      4.95% { transform: translate(197.4px, 226.9px); }
      5.94% { transform: translate(203.0px, 223.6px); }
      6.93% { transform: translate(208.6px, 220.3px); }
      7.92% { transform: translate(214.2px, 216.9px); }
      8.91% { transform: translate(219.7px, 213.6px); }
      9.9% { transform: translate(225.3px, 210.2px); }
      10.89% { transform: translate(230.9px, 206.9px); }
      11.88% { transform: translate(236.5px, 203.5px); }
      12.87% { transform: translate(242.0px, 200.2px); }
      13.86% { transform: translate(247.6px, 196.8px); }
      14.85% { transform: translate(253.2px, 193.5px); }
      15.84% { transform: translate(258.8px, 190.2px); }
      16.83% { transform: translate(264.3px, 186.8px); }
      17.82% { transform: translate(269.9px, 183.5px); }
      18.81% { transform: translate(275.5px, 180.1px); }
      19.8% { transform: translate(281.1px, 176.8px); }
      20.79% { transform: translate(286.6px, 173.4px); }
      21.78% { transform: translate(292.2px, 170.1px); }
      22.77% { transform: translate(297.8px, 166.8px); }
      23.76% { transform: translate(303.3px, 163.4px); }
      24.75% { transform: translate(308.9px, 160.1px); }
      25.74% { transform: translate(314.5px, 156.7px); }
      26.73% { transform: translate(320.1px, 153.4px); }
      27.72% { transform: translate(325.6px, 150.0px); }
      28.71% { transform: translate(331.2px, 146.7px); }
      29.7% { transform: translate(336.8px, 143.3px); }
      30.69% { transform: translate(342.4px, 140.0px); }
      31.68% { transform: translate(347.9px, 136.7px); }
      32.67% { transform: translate(353.5px, 133.3px); }
      33.66% { transform: translate(359.1px, 130.0px); }
      34.65% { transform: translate(364.7px, 126.6px); }
      35.64% { transform: translate(370.2px, 123.3px); }
      36.63% { transform: translate(375.8px, 119.9px); }
      37.62% { transform: translate(381.4px, 116.6px); }
      38.61% { transform: translate(387.0px, 113.3px); }
      39.6% { transform: translate(392.5px, 109.9px); }
      40.59% { transform: translate(398.1px, 106.6px); }
      41.58% { transform: translate(403.7px, 103.2px); }
      42.57% { transform: translate(409.3px, 99.9px); }
      43.56% { transform: translate(414.8px, 96.5px); }
      44.55% { transform: translate(420.4px, 93.2px); }
      45.54% { transform: translate(426.0px, 89.8px); }
      46.53% { transform: translate(431.6px, 86.5px); }
      47.52% { transform: translate(437.1px, 83.2px); }
      48.51% { transform: translate(442.7px, 79.8px); }
      49.5% { transform: translate(448.3px, 76.5px); }
      50.5% { transform: translate(453.8px, 73.1px); }
      51.49% { transform: translate(459.4px, 69.8px); }
      52.48% { transform: translate(465.0px, 66.4px); }
      53.47% { transform: translate(470.6px, 63.1px); }
      54.46% { transform: translate(476.1px, 59.8px); }
      55.45% { transform: translate(481.7px, 56.4px); }
      56.44% { transform: translate(487.3px, 53.1px); }
      57.43% { transform: translate(492.9px, 49.7px); }
      58.42% { transform: translate(498.4px, 46.4px); }
      59.41% { transform: translate(504.0px, 43.0px); }
      60.4% { transform: translate(509.6px, 39.7px); }
      61.39% { transform: translate(515.2px, 36.3px); }
      62.38% { transform: translate(520.7px, 33.0px); }
      63.37% { transform: translate(526.3px, 29.7px); }
      64.36% { transform: translate(531.9px, 26.3px); }
      65.35% { transform: translate(537.5px, 23.0px); }
      66.34% { transform: translate(543.0px, 19.6px); }
      67.33% { transform: translate(548.6px, 16.3px); }
      68.32% { transform: translate(554.2px, 14px); }
      69.31% { transform: translate(559.8px, 17.3px); }
      70.3% { transform: translate(565.3px, 20.7px); }
      71.29% { transform: translate(570.9px, 24.0px); }
      72.28% { transform: translate(576.5px, 27.4px); }
      73.27% { transform: translate(582.1px, 30.7px); }
      74.26% { transform: translate(587.6px, 34.1px); }
      75.25% { transform: translate(593.2px, 37.4px); }
      76.24% { transform: translate(598.8px, 40.7px); }
      77.23% { transform: translate(604.3px, 44.1px); }
      78.22% { transform: translate(609.9px, 47.4px); }
      79.21% { transform: translate(615.5px, 50.8px); }
      80.2% { transform: translate(620px, 54.1px); }
      81.19% { transform: translate(614.4px, 57.5px); }
      82.18% { transform: translate(608.9px, 60.8px); }
      83.17% { transform: translate(603.3px, 64.2px); }
      84.16% { transform: translate(597.7px, 67.5px); }
      85.15% { transform: translate(592.1px, 70.8px); }
      86.14% { transform: translate(592.1px, 70.8px); }
      87.13% { transform: translate(592.1px, 70.8px); }
      88.12% { transform: translate(592.1px, 70.8px); }
      89.11% { transform: translate(592.1px, 70.8px); }
      90.1% { transform: translate(592.1px, 70.8px); }
      91.09% { transform: translate(592.1px, 70.8px); }
      92.08% { transform: translate(592.1px, 70.8px); }
      93.07% { transform: translate(592.1px, 70.8px); }
      94.06% { transform: translate(592.1px, 70.8px); }
      95.05% { transform: translate(592.1px, 70.8px); }
      96.04% { transform: translate(592.1px, 70.8px); }
      97.03% { transform: translate(592.1px, 70.8px); }
      98.02% { transform: translate(592.1px, 70.8px); }
      99.01% { transform: translate(592.1px, 70.8px); }
      100.0% { transform: translate(592.1px, 70.8px); }
    }
    @keyframes paddle-motion {
      0.0% { transform: translate(132.0px, 255px); }
      0.99% { transform: translate(137.8px, 255px); }
      1.98% { transform: translate(144.3px, 255px); }
      2.97% { transform: translate(149.3px, 255px); }
      3.96% { transform: translate(156.6px, 255px); }
      4.95% { transform: translate(161.6px, 255px); }
      5.94% { transform: translate(167.5px, 255px); }
      6.93% { transform: translate(173.7px, 255px); }
      7.92% { transform: translate(178.7px, 255px); }
      8.91% { transform: translate(186.0px, 255px); }
      9.9% { transform: translate(192.1px, 255px); }
      10.89% { transform: translate(197.2px, 255px); }
      11.88% { transform: translate(202.9px, 255px); }
      12.87% { transform: translate(209.5px, 255px); }
      13.86% { transform: translate(213.8px, 255px); }
      14.85% { transform: translate(220.0px, 255px); }
      15.84% { transform: translate(223.4px, 255px); }
      16.83% { transform: translate(230.6px, 255px); }
      17.82% { transform: translate(234.4px, 255px); }
      18.81% { transform: translate(240.6px, 255px); }
      19.8% { transform: translate(245.0px, 255px); }
      20.79% { transform: translate(250.1px, 255px); }
      21.78% { transform: translate(256.1px, 255px); }
      22.77% { transform: translate(260.9px, 255px); }
      23.76% { transform: translate(265.9px, 255px); }
      24.75% { transform: translate(270.8px, 255px); }
      25.74% { transform: translate(275.9px, 255px); }
      26.73% { transform: translate(281.2px, 255px); }
      27.72% { transform: translate(285.6px, 255px); }
      28.71% { transform: translate(291.3px, 255px); }
      29.7% { transform: translate(296.0px, 255px); }
      30.69% { transform: translate(300.4px, 255px); }
      31.68% { transform: translate(307.6px, 255px); }
      32.67% { transform: translate(313.0px, 255px); }
      33.66% { transform: translate(318.3px, 255px); }
      34.65% { transform: translate(322.6px, 255px); }
      35.64% { transform: translate(327.6px, 255px); }
      36.63% { transform: translate(334.7px, 255px); }
      37.62% { transform: translate(338.8px, 255px); }
      38.61% { transform: translate(345.4px, 255px); }
      39.6% { transform: translate(351.6px, 255px); }
      40.59% { transform: translate(357.1px, 255px); }
      41.58% { transform: translate(360.9px, 255px); }
      42.57% { transform: translate(367.2px, 255px); }
      43.56% { transform: translate(374.0px, 255px); }
      44.55% { transform: translate(379.2px, 255px); }
      45.54% { transform: translate(385.7px, 255px); }
      46.53% { transform: translate(391.8px, 255px); }
      47.52% { transform: translate(396.8px, 255px); }
      48.51% { transform: translate(402.8px, 255px); }
      49.5% { transform: translate(409.4px, 255px); }
      50.5% { transform: translate(415.4px, 255px); }
      51.49% { transform: translate(421.4px, 255px); }
      52.48% { transform: translate(427.3px, 255px); }
      53.47% { transform: translate(433.5px, 255px); }
      54.46% { transform: translate(439.9px, 255px); }
      55.45% { transform: translate(446.1px, 255px); }
      56.44% { transform: translate(451.4px, 255px); }
      57.43% { transform: translate(458.4px, 255px); }
      58.42% { transform: translate(463.1px, 255px); }
      59.41% { transform: translate(468.4px, 255px); }
      60.4% { transform: translate(473.9px, 255px); }
      61.39% { transform: translate(479.9px, 255px); }
      62.38% { transform: translate(486.7px, 255px); }
      63.37% { transform: translate(493.3px, 255px); }
      64.36% { transform: translate(498.9px, 255px); }
      65.35% { transform: translate(504.1px, 255px); }
      66.34% { transform: translate(508.6px, 255px); }
      67.33% { transform: translate(514.1px, 255px); }
      68.32% { transform: translate(519.7px, 255px); }
      69.31% { transform: translate(524.8px, 255px); }
      70.3% { transform: translate(529.3px, 255px); }
      71.29% { transform: translate(535.7px, 255px); }
      72.28% { transform: translate(540.5px, 255px); }
      73.27% { transform: translate(545.8px, 255px); }
      74.26% { transform: translate(549px, 255px); }
      75.25% { transform: translate(549px, 255px); }
      76.24% { transform: translate(549px, 255px); }
      77.23% { transform: translate(549px, 255px); }
      78.22% { transform: translate(549px, 255px); }
      79.21% { transform: translate(549px, 255px); }
      80.2% { transform: translate(549px, 255px); }
      81.19% { transform: translate(549px, 255px); }
      82.18% { transform: translate(549px, 255px); }
      83.17% { transform: translate(549px, 255px); }
      84.16% { transform: translate(549px, 255px); }
      85.15% { transform: translate(549px, 255px); }
      86.14% { transform: translate(549px, 255px); }
      87.13% { transform: translate(549px, 255px); }
      88.12% { transform: translate(549px, 255px); }
      89.11% { transform: translate(549px, 255px); }
      90.1% { transform: translate(549px, 255px); }
      91.09% { transform: translate(549px, 255px); }
      92.08% { transform: translate(549px, 255px); }
      93.07% { transform: translate(549px, 255px); }
      94.06% { transform: translate(549px, 255px); }
      95.05% { transform: translate(549px, 255px); }
      96.04% { transform: translate(549px, 255px); }
      97.03% { transform: translate(549px, 255px); }
      98.02% { transform: translate(549px, 255px); }
      99.01% { transform: translate(549px, 255px); }
      100.0% { transform: translate(549px, 255px); }
    }
    @keyframes p-drift-0 {
      0.0%, 100.0% { opacity: 0; }
    }
    .p-node-0 { animation: p-drift-0 3.9s linear infinite; }
    @keyframes p-drift-1 {
      0.0%, 100.0% { opacity: 0; }
    }
    .p-node-1 { animation: p-drift-1 3.9s linear infinite; }
    @keyframes p-drift-2 {
      0.0%, 100.0% { opacity: 0; }
    }
    .p-node-2 { animation: p-drift-2 3.9s linear infinite; }
    @keyframes p-drift-3 {
      0.0%, 100.0% { opacity: 0; }
    }
    .p-node-3 { animation: p-drift-3 3.9s linear infinite; }
    @keyframes p-drift-4 {
      0.0%, 100.0% { opacity: 0; }
    }
    .p-node-4 { animation: p-drift-4 3.9s linear infinite; }
    @keyframes p-drift-5 {
      0.0%, 100.0% { opacity: 0; }
    }
    .p-node-5 { animation: p-drift-5 3.9s linear infinite; }
    @keyframes p-drift-6 {
      0.0%, 100.0% { opacity: 0; }
    }
    .p-node-6 { animation: p-drift-6 3.9s linear infinite; }
    @keyframes p-drift-7 {
      0.0%, 100.0% { opacity: 0; }
    }
    .p-node-7 { animation: p-drift-7 3.9s linear infinite; }
    @keyframes p-drift-8 {
      0.0%, 100.0% { opacity: 0; }
    }
    .p-node-8 { animation: p-drift-8 3.9s linear infinite; }
    @keyframes p-drift-9 {
      0.0%, 100.0% { opacity: 0; }
    }
    .p-node-9 { animation: p-drift-9 3.9s linear infinite; }
    @keyframes p-drift-10 {
      0.0%, 100.0% { opacity: 0; }
    }
    .p-node-10 { animation: p-drift-10 3.9s linear infinite; }
    @keyframes p-drift-11 {
      0.0%, 100.0% { opacity: 0; }
    }
    .p-node-11 { animation: p-drift-11 3.9s linear infinite; }
    @keyframes p-drift-12 {
      0.0%, 100.0% { opacity: 0; }
    }
    .p-node-12 { animation: p-drift-12 3.9s linear infinite; }
    @keyframes p-drift-13 {
      0.0%, 100.0% { opacity: 0; }
    }
    .p-node-13 { animation: p-drift-13 3.9s linear infinite; }
    @keyframes p-drift-14 {
      0.0%, 100.0% { opacity: 0; }
    }
    .p-node-14 { animation: p-drift-14 3.9s linear infinite; }
    @keyframes p-drift-15 {
      0.0%, 100.0% { opacity: 0; }
    }
    .p-node-15 { animation: p-drift-15 3.9s linear infinite; }
    @keyframes p-drift-16 {
      0.0%, 100.0% { opacity: 0; }
    }
    .p-node-16 { animation: p-drift-16 3.9s linear infinite; }
    @keyframes p-drift-17 {
      0.0%, 100.0% { opacity: 0; }
    }
    .p-node-17 { animation: p-drift-17 3.9s linear infinite; }
    @keyframes score-d100 {
      0.0%, 100.0% { transform: translateY(-0px); }
    }
    @keyframes score-d10 {
      0.0%, 100.0% { transform: translateY(-0px); }
    }
    @keyframes score-d1 {
      0.0%, 84.16% { transform: translateY(-0px); }
      85.15%, 100.0% { transform: translateY(-12px); }
    }
    @keyframes heart-life-1 {
      0.0%, 100.0% { opacity: 1; }
    }
    @keyframes heart-life-2 {
      0.0%, 100.0% { opacity: 1; }
    }
    @keyframes heart-life-3 {
      0.0%, 100.0% { opacity: 1; }
    }
    @keyframes b0 { 0%, 85.15% { fill: #006d32; opacity: 1; } 85.17%, 100% { opacity: 0; } }
    .b0 { fill: #006d32; animation: b0 3.9s linear infinite; }
  </style>
  <defs>
    <g id="paddle-graphic">
      <rect x="0" y="0" width="75" height="8" rx="3" fill="#58a6ff" />
    </g>
    <clipPath id="score-clip"><rect x="0" y="0" width="30" height="12" /></clipPath>
  </defs>
  <rect class="bg" width="100%" height="100%" />
  <rect x="492.1" y="14.0" width="2" height="2" fill="#ffffff" style="animation: star-twinkle 1.5s ease-in-out infinite 0.0s;" />
  <rect x="626.5" y="35.5" width="1" height="1" fill="#ffffff" style="animation: star-twinkle 1.9s ease-in-out infinite 0.3s;" />
  <rect x="86.3" y="242.6" width="1" height="1" fill="#ffffff" style="animation: star-twinkle 2.3s ease-in-out infinite 0.6s;" />
  <rect x="144.2" y="190.9" width="1" height="1" fill="#ffffff" style="animation: star-twinkle 2.7s ease-in-out infinite 0.9s;" />
  <rect x="373.3" y="139.8" width="1" height="1" fill="#ffffff" style="animation: star-twinkle 3.1s ease-in-out infinite 1.2s;" />
  <rect x="354.1" y="210.2" width="2" height="2" fill="#ffffff" style="animation: star-twinkle 1.5s ease-in-out infinite 1.5s;" />
  <rect x="409.9" y="43.4" width="1" height="1" fill="#ffffff" style="animation: star-twinkle 1.9s ease-in-out infinite 1.8s;" />
  <rect x="150.8" y="154.9" width="1" height="1" fill="#ffffff" style="animation: star-twinkle 2.3s ease-in-out infinite 0.0s;" />
  <rect x="552.6" y="202.0" width="1" height="1" fill="#ffffff" style="animation: star-twinkle 2.7s ease-in-out infinite 0.3s;" />
  <rect x="424.8" y="207.9" width="1" height="1" fill="#ffffff" style="animation: star-twinkle 3.1s ease-in-out infinite 0.6s;" />
  <rect x="331.9" y="105.0" width="1" height="1" fill="#ffffff" style="animation: star-twinkle 1.5s ease-in-out infinite 0.9s;" />
  <rect x="514.5" y="25.8" width="1" height="1" fill="#ffffff" style="animation: star-twinkle 1.9s ease-in-out infinite 1.2s;" />
  <rect x="101.0" y="182.0" width="1" height="1" fill="#ffffff" style="animation: star-twinkle 2.3s ease-in-out infinite 1.5s;" />
  <rect x="490.2" y="47.5" width="1" height="1" fill="#ffffff" style="animation: star-twinkle 2.7s ease-in-out infinite 1.8s;" />
  <rect x="423.3" y="208.2" width="2" height="2" fill="#ffffff" style="animation: star-twinkle 3.1s ease-in-out infinite 0.0s;" />
  <rect x="241.7" y="90.6" width="1" height="1" fill="#ffffff" style="animation: star-twinkle 1.5s ease-in-out infinite 0.3s;" />
  <rect x="573.3" y="148.9" width="1" height="1" fill="#ffffff" style="animation: star-twinkle 1.9s ease-in-out infinite 0.6s;" />
  <rect x="81.3" y="14.8" width="1" height="1" fill="#ffffff" style="animation: star-twinkle 2.3s ease-in-out infinite 0.9s;" />
  <rect x="591.9" y="34.8" width="1" height="1" fill="#ffffff" style="animation: star-twinkle 2.7s ease-in-out infinite 1.2s;" />
  <rect x="577.1" y="190.9" width="1" height="1" fill="#ffffff" style="animation: star-twinkle 3.1s ease-in-out infinite 1.5s;" />
  <rect x="97.4" y="221.7" width="1" height="1" fill="#ffffff" style="animation: star-twinkle 1.5s ease-in-out infinite 1.8s;" />
  <rect x="595.8" y="114.2" width="1" height="1" fill="#ffffff" style="animation: star-twinkle 1.9s ease-in-out infinite 0.0s;" />
  <rect x="43.3" y="235.1" width="1" height="1" fill="#ffffff" style="animation: star-twinkle 2.3s ease-in-out infinite 0.3s;" />
  <rect x="605.6" y="263.2" width="2" height="2" fill="#ffffff" style="animation: star-twinkle 2.7s ease-in-out infinite 0.6s;" />
  <rect x="373.0" y="102.4" width="1" height="1" fill="#ffffff" style="animation: star-twinkle 3.1s ease-in-out infinite 0.9s;" />
  <rect x="269.5" y="21.0" width="1" height="1" fill="#ffffff" style="animation: star-twinkle 1.5s ease-in-out infinite 1.2s;" />
  <rect x="98.3" y="251.0" width="1" height="1" fill="#ffffff" style="animation: star-twinkle 1.9s ease-in-out infinite 1.5s;" />
  <rect x="147.4" y="158.5" width="1" height="1" fill="#ffffff" style="animation: star-twinkle 2.3s ease-in-out infinite 1.8s;" />
  <rect x="533.6" y="210.8" width="1" height="1" fill="#ffffff" style="animation: star-twinkle 2.7s ease-in-out infinite 0.0s;" />
  <rect x="483.9" y="125.1" width="1" height="1" fill="#ffffff" style="animation: star-twinkle 3.1s ease-in-out infinite 0.3s;" />
  <rect x="426.2" y="85.8" width="1" height="1" fill="#ffffff" style="animation: star-twinkle 1.5s ease-in-out infinite 0.6s;" />
  <rect x="33.4" y="239.5" width="1" height="1" fill="#ffffff" style="animation: star-twinkle 1.9s ease-in-out infinite 0.9s;" />
  <rect x="119.0" y="100.4" width="2" height="2" fill="#ffffff" style="animation: star-twinkle 2.3s ease-in-out infinite 1.2s;" />
  <rect x="377.0" y="264.0" width="2" height="2" fill="#ffffff" style="animation: star-twinkle 2.7s ease-in-out infinite 1.5s;" />
  <rect x="82.0" y="56.3" width="1" height="1" fill="#ffffff" style="animation: star-twinkle 3.1s ease-in-out infinite 1.8s;" />
  <text class="score-txt" x="16" y="18">SCORE:</text>
  <g transform="translate(62, 8)" clip-path="url(#score-clip)">
    <g class="roll-d100"><text class="score-txt" x="0" y="10"><tspan x="0" dy="0">0</tspan><tspan x="0" dy="12">1</tspan><tspan x="0" dy="12">2</tspan><tspan x="0" dy="12">3</tspan><tspan x="0" dy="12">4</tspan><tspan x="0" dy="12">5</tspan><tspan x="0" dy="12">6</tspan><tspan x="0" dy="12">7</tspan><tspan x="0" dy="12">8</tspan><tspan x="0" dy="12">9</tspan></text></g>
    <g class="roll-d10"><text class="score-txt" x="7" y="10"><tspan x="7" dy="0">0</tspan><tspan x="7" dy="12">1</tspan><tspan x="7" dy="12">2</tspan><tspan x="7" dy="12">3</tspan><tspan x="7" dy="12">4</tspan><tspan x="7" dy="12">5</tspan><tspan x="7" dy="12">6</tspan><tspan x="7" dy="12">7</tspan><tspan x="7" dy="12">8</tspan><tspan x="7" dy="12">9</tspan></text></g>
    <g class="roll-d1"><text class="score-txt" x="14" y="10"><tspan x="14" dy="0">0</tspan><tspan x="14" dy="12">1</tspan><tspan x="14" dy="12">2</tspan><tspan x="14" dy="12">3</tspan><tspan x="14" dy="12">4</tspan><tspan x="14" dy="12">5</tspan><tspan x="14" dy="12">6</tspan><tspan x="14" dy="12">7</tspan><tspan x="14" dy="12">8</tspan><tspan x="14" dy="12">9</tspan></text></g>
  </g>
  <text class="score-txt" x="84" y="18">/1</text>
  <path class="heart heart-1" d="M 576 19 L 571 14 L 571 12 L 574 9 L 576 12 L 578 9 L 581 12 L 581 14 Z" />
  <path class="heart heart-2" d="M 592 19 L 587 14 L 587 12 L 590 9 L 592 12 L 594 9 L 597 12 L 597 14 Z" />
  <path class="heart heart-3" d="M 608 19 L 603 14 L 603 12 L 606 9 L 608 12 L 610 9 L 613 12 L 613 14 Z" />
  <rect class="empty-cell" x="17.0" y="29.0" width="13.2" height="11.0" />
  <rect class="empty-cell" x="32.2" y="29.0" width="13.2" height="11.0" />
  <rect class="empty-cell" x="47.4" y="29.0" width="13.2" height="11.0" />
  <rect class="empty-cell" x="62.6" y="29.0" width="13.2" height="11.0" />
  <rect class="empty-cell" x="77.8" y="29.0" width="13.2" height="11.0" />
  <rect class="empty-cell" x="93.0" y="29.0" width="13.2" height="11.0" />
  <rect class="empty-cell" x="108.2" y="29.0" width="13.2" height="11.0" />
  <rect class="empty-cell" x="123.4" y="29.0" width="13.2" height="11.0" />
  <rect class="empty-cell" x="138.6" y="29.0" width="13.2" height="11.0" />
  <rect class="empty-cell" x="153.8" y="29.0" width="13.2" height="11.0" />
  <rect class="empty-cell" x="169.0" y="29.0" width="13.2" height="11.0" />
  <rect class="empty-cell" x="184.2" y="29.0" width="13.2" height="11.0" />
  <rect class="empty-cell" x="199.4" y="29.0" width="13.2" height="11.0" />
  <rect class="empty-cell" x="214.6" y="29.0" width="13.2" height="11.0" />
  <rect class="empty-cell" x="229.8" y="29.0" width="13.2" height="11.0" />
  <rect class="empty-cell" x="245.0" y="29.0" width="13.2" height="11.0" />
  <rect class="empty-cell" x="260.2" y="29.0" width="13.2" height="11.0" />
  <rect class="empty-cell" x="275.4" y="29.0" width="13.2" height="11.0" />
  <rect class="empty-cell" x="290.6" y="29.0" width="13.2" height="11.0" />
  <rect class="empty-cell" x="305.8" y="29.0" width="13.2" height="11.0" />
  <rect class="empty-cell" x="321.0" y="29.0" width="13.2" height="11.0" />
  <rect class="empty-cell" x="336.2" y="29.0" width="13.2" height="11.0" />
  <rect class="empty-cell" x="351.4" y="29.0" width="13.2" height="11.0" />
  <rect class="empty-cell" x="366.6" y="29.0" width="13.2" height="11.0" />
  <rect class="empty-cell" x="381.8" y="29.0" width="13.2" height="11.0" />
  <rect class="empty-cell" x="397.0" y="29.0" width="13.2" height="11.0" />
  <rect class="empty-cell" x="412.2" y="29.0" width="13.2" height="11.0" />
  <rect class="empty-cell" x="427.4" y="29.0" width="13.2" height="11.0" />
  <rect class="empty-cell" x="442.6" y="29.0" width="13.2" height="11.0" />
  <rect class="empty-cell" x="457.8" y="29.0" width="13.2" height="11.0" />
  <rect class="empty-cell" x="473.0" y="29.0" width="13.2" height="11.0" />
  <rect class="empty-cell" x="488.2" y="29.0" width="13.2" height="11.0" />
  <rect class="empty-cell" x="503.4" y="29.0" width="13.2" height="11.0" />
  <rect class="empty-cell" x="518.6" y="29.0" width="13.2" height="11.0" />
  <rect class="empty-cell" x="533.8" y="29.0" width="13.2" height="11.0" />
  <rect class="empty-cell" x="549.0" y="29.0" width="13.2" height="11.0" />
  <rect class="empty-cell" x="564.2" y="29.0" width="13.2" height="11.0" />
  <rect class="empty-cell" x="579.4" y="29.0" width="13.2" height="11.0" />
  <rect class="empty-cell" x="594.6" y="29.0" width="13.2" height="11.0" />
  <rect class="empty-cell" x="609.8" y="29.0" width="13.2" height="11.0" />
  <rect class="empty-cell" x="17.0" y="42.0" width="13.2" height="11.0" />
  <rect class="empty-cell" x="32.2" y="42.0" width="13.2" height="11.0" />
  <rect class="empty-cell" x="47.4" y="42.0" width="13.2" height="11.0" />
  <rect class="empty-cell" x="62.6" y="42.0" width="13.2" height="11.0" />
  <rect class="empty-cell" x="77.8" y="42.0" width="13.2" height="11.0" />
  <rect class="empty-cell" x="93.0" y="42.0" width="13.2" height="11.0" />
  <rect class="empty-cell" x="108.2" y="42.0" width="13.2" height="11.0" />
  <rect class="empty-cell" x="123.4" y="42.0" width="13.2" height="11.0" />
  <rect class="empty-cell" x="138.6" y="42.0" width="13.2" height="11.0" />
  <rect class="empty-cell" x="153.8" y="42.0" width="13.2" height="11.0" />
  <rect class="empty-cell" x="169.0" y="42.0" width="13.2" height="11.0" />
  <rect class="empty-cell" x="184.2" y="42.0" width="13.2" height="11.0" />
  <rect class="empty-cell" x="199.4" y="42.0" width="13.2" height="11.0" />
  <rect class="empty-cell" x="214.6" y="42.0" width="13.2" height="11.0" />
  <rect class="empty-cell" x="229.8" y="42.0" width="13.2" height="11.0" />
  <rect class="empty-cell" x="245.0" y="42.0" width="13.2" height="11.0" />
  <rect class="empty-cell" x="260.2" y="42.0" width="13.2" height="11.0" />
  <rect class="empty-cell" x="275.4" y="42.0" width="13.2" height="11.0" />
  <rect class="empty-cell" x="290.6" y="42.0" width="13.2" height="11.0" />
  <rect class="empty-cell" x="305.8" y="42.0" width="13.2" height="11.0" />
  <rect class="empty-cell" x="321.0" y="42.0" width="13.2" height="11.0" />
  <rect class="empty-cell" x="336.2" y="42.0" width="13.2" height="11.0" />
  <rect class="empty-cell" x="351.4" y="42.0" width="13.2" height="11.0" />
  <rect class="empty-cell" x="366.6" y="42.0" width="13.2" height="11.0" />
  <rect class="empty-cell" x="381.8" y="42.0" width="13.2" height="11.0" />
  <rect class="empty-cell" x="397.0" y="42.0" width="13.2" height="11.0" />
  <rect class="empty-cell" x="412.2" y="42.0" width="13.2" height="11.0" />
  <rect class="empty-cell" x="427.4" y="42.0" width="13.2" height="11.0" />
  <rect class="empty-cell" x="442.6" y="42.0" width="13.2" height="11.0" />
  <rect class="empty-cell" x="457.8" y="42.0" width="13.2" height="11.0" />
  <rect class="empty-cell" x="473.0" y="42.0" width="13.2" height="11.0" />
  <rect class="empty-cell" x="488.2" y="42.0" width="13.2" height="11.0" />
  <rect class="empty-cell" x="503.4" y="42.0" width="13.2" height="11.0" />
  <rect class="empty-cell" x="518.6" y="42.0" width="13.2" height="11.0" />
  <rect class="empty-cell" x="533.8" y="42.0" width="13.2" height="11.0" />
  <rect class="empty-cell" x="549.0" y="42.0" width="13.2" height="11.0" />
  <rect class="empty-cell" x="564.2" y="42.0" width="13.2" height="11.0" />
  <rect class="empty-cell" x="579.4" y="42.0" width="13.2" height="11.0" />
  <rect class="empty-cell" x="594.6" y="42.0" width="13.2" height="11.0" />
  <rect class="empty-cell" x="609.8" y="42.0" width="13.2" height="11.0" />
  <rect class="empty-cell" x="17.0" y="55.0" width="13.2" height="11.0" />
  <rect class="empty-cell" x="32.2" y="55.0" width="13.2" height="11.0" />
  <rect class="empty-cell" x="47.4" y="55.0" width="13.2" height="11.0" />
  <rect class="empty-cell" x="62.6" y="55.0" width="13.2" height="11.0" />
  <rect class="empty-cell" x="77.8" y="55.0" width="13.2" height="11.0" />
  <rect class="empty-cell" x="93.0" y="55.0" width="13.2" height="11.0" />
  <rect class="empty-cell" x="108.2" y="55.0" width="13.2" height="11.0" />
  <rect class="empty-cell" x="123.4" y="55.0" width="13.2" height="11.0" />
  <rect class="empty-cell" x="138.6" y="55.0" width="13.2" height="11.0" />
  <rect class="empty-cell" x="153.8" y="55.0" width="13.2" height="11.0" />
  <rect class="empty-cell" x="169.0" y="55.0" width="13.2" height="11.0" />
  <rect class="empty-cell" x="184.2" y="55.0" width="13.2" height="11.0" />
  <rect class="empty-cell" x="199.4" y="55.0" width="13.2" height="11.0" />
  <rect class="empty-cell" x="214.6" y="55.0" width="13.2" height="11.0" />
  <rect class="empty-cell" x="229.8" y="55.0" width="13.2" height="11.0" />
  <rect class="empty-cell" x="245.0" y="55.0" width="13.2" height="11.0" />
  <rect class="empty-cell" x="260.2" y="55.0" width="13.2" height="11.0" />
  <rect class="empty-cell" x="275.4" y="55.0" width="13.2" height="11.0" />
  <rect class="empty-cell" x="290.6" y="55.0" width="13.2" height="11.0" />
  <rect class="empty-cell" x="305.8" y="55.0" width="13.2" height="11.0" />
  <rect class="empty-cell" x="321.0" y="55.0" width="13.2" height="11.0" />
  <rect class="empty-cell" x="336.2" y="55.0" width="13.2" height="11.0" />
  <rect class="empty-cell" x="351.4" y="55.0" width="13.2" height="11.0" />
  <rect class="empty-cell" x="366.6" y="55.0" width="13.2" height="11.0" />
  <rect class="empty-cell" x="381.8" y="55.0" width="13.2" height="11.0" />
  <rect class="empty-cell" x="397.0" y="55.0" width="13.2" height="11.0" />
  <rect class="empty-cell" x="412.2" y="55.0" width="13.2" height="11.0" />
  <rect class="empty-cell" x="427.4" y="55.0" width="13.2" height="11.0" />
  <rect class="empty-cell" x="442.6" y="55.0" width="13.2" height="11.0" />
  <rect class="empty-cell" x="457.8" y="55.0" width="13.2" height="11.0" />
  <rect class="empty-cell" x="473.0" y="55.0" width="13.2" height="11.0" />
  <rect class="empty-cell" x="488.2" y="55.0" width="13.2" height="11.0" />
  <rect class="empty-cell" x="503.4" y="55.0" width="13.2" height="11.0" />
  <rect class="empty-cell" x="518.6" y="55.0" width="13.2" height="11.0" />
  <rect class="empty-cell" x="533.8" y="55.0" width="13.2" height="11.0" />
  <rect class="empty-cell" x="549.0" y="55.0" width="13.2" height="11.0" />
  <rect class="empty-cell" x="564.2" y="55.0" width="13.2" height="11.0" />
  <rect class="empty-cell" x="579.4" y="55.0" width="13.2" height="11.0" />
  <rect class="b0" x="579.4" y="55.0" width="13.2" height="11.0" />
  <rect class="empty-cell" x="594.6" y="55.0" width="13.2" height="11.0" />
  <rect class="empty-cell" x="609.8" y="55.0" width="13.2" height="11.0" />
  <rect class="empty-cell" x="17.0" y="68.0" width="13.2" height="11.0" />
  <rect class="empty-cell" x="32.2" y="68.0" width="13.2" height="11.0" />
  <rect class="empty-cell" x="47.4" y="68.0" width="13.2" height="11.0" />
  <rect class="empty-cell" x="62.6" y="68.0" width="13.2" height="11.0" />
  <rect class="empty-cell" x="77.8" y="68.0" width="13.2" height="11.0" />
  <rect class="empty-cell" x="93.0" y="68.0" width="13.2" height="11.0" />
  <rect class="empty-cell" x="108.2" y="68.0" width="13.2" height="11.0" />
  <rect class="empty-cell" x="123.4" y="68.0" width="13.2" height="11.0" />
  <rect class="empty-cell" x="138.6" y="68.0" width="13.2" height="11.0" />
  <rect class="empty-cell" x="153.8" y="68.0" width="13.2" height="11.0" />
  <rect class="empty-cell" x="169.0" y="68.0" width="13.2" height="11.0" />
  <rect class="empty-cell" x="184.2" y="68.0" width="13.2" height="11.0" />
  <rect class="empty-cell" x="199.4" y="68.0" width="13.2" height="11.0" />
  <rect class="empty-cell" x="214.6" y="68.0" width="13.2" height="11.0" />
  <rect class="empty-cell" x="229.8" y="68.0" width="13.2" height="11.0" />
  <rect class="empty-cell" x="245.0" y="68.0" width="13.2" height="11.0" />
  <rect class="empty-cell" x="260.2" y="68.0" width="13.2" height="11.0" />
  <rect class="empty-cell" x="275.4" y="68.0" width="13.2" height="11.0" />
  <rect class="empty-cell" x="290.6" y="68.0" width="13.2" height="11.0" />
  <rect class="empty-cell" x="305.8" y="68.0" width="13.2" height="11.0" />
  <rect class="empty-cell" x="321.0" y="68.0" width="13.2" height="11.0" />
  <rect class="empty-cell" x="336.2" y="68.0" width="13.2" height="11.0" />
  <rect class="empty-cell" x="351.4" y="68.0" width="13.2" height="11.0" />
  <rect class="empty-cell" x="366.6" y="68.0" width="13.2" height="11.0" />
  <rect class="empty-cell" x="381.8" y="68.0" width="13.2" height="11.0" />
  <rect class="empty-cell" x="397.0" y="68.0" width="13.2" height="11.0" />
  <rect class="empty-cell" x="412.2" y="68.0" width="13.2" height="11.0" />
  <rect class="empty-cell" x="427.4" y="68.0" width="13.2" height="11.0" />
  <rect class="empty-cell" x="442.6" y="68.0" width="13.2" height="11.0" />
  <rect class="empty-cell" x="457.8" y="68.0" width="13.2" height="11.0" />
  <rect class="empty-cell" x="473.0" y="68.0" width="13.2" height="11.0" />
  <rect class="empty-cell" x="488.2" y="68.0" width="13.2" height="11.0" />
  <rect class="empty-cell" x="503.4" y="68.0" width="13.2" height="11.0" />
  <rect class="empty-cell" x="518.6" y="68.0" width="13.2" height="11.0" />
  <rect class="empty-cell" x="533.8" y="68.0" width="13.2" height="11.0" />
  <rect class="empty-cell" x="549.0" y="68.0" width="13.2" height="11.0" />
  <rect class="empty-cell" x="564.2" y="68.0" width="13.2" height="11.0" />
  <rect class="empty-cell" x="579.4" y="68.0" width="13.2" height="11.0" />
  <rect class="empty-cell" x="594.6" y="68.0" width="13.2" height="11.0" />
  <rect class="empty-cell" x="609.8" y="68.0" width="13.2" height="11.0" />
  <rect class="empty-cell" x="17.0" y="81.0" width="13.2" height="11.0" />
  <rect class="empty-cell" x="32.2" y="81.0" width="13.2" height="11.0" />
  <rect class="empty-cell" x="47.4" y="81.0" width="13.2" height="11.0" />
  <rect class="empty-cell" x="62.6" y="81.0" width="13.2" height="11.0" />
  <rect class="empty-cell" x="77.8" y="81.0" width="13.2" height="11.0" />
  <rect class="empty-cell" x="93.0" y="81.0" width="13.2" height="11.0" />
  <rect class="empty-cell" x="108.2" y="81.0" width="13.2" height="11.0" />
  <rect class="empty-cell" x="123.4" y="81.0" width="13.2" height="11.0" />
  <rect class="empty-cell" x="138.6" y="81.0" width="13.2" height="11.0" />
  <rect class="empty-cell" x="153.8" y="81.0" width="13.2" height="11.0" />
  <rect class="empty-cell" x="169.0" y="81.0" width="13.2" height="11.0" />
  <rect class="empty-cell" x="184.2" y="81.0" width="13.2" height="11.0" />
  <rect class="empty-cell" x="199.4" y="81.0" width="13.2" height="11.0" />
  <rect class="empty-cell" x="214.6" y="81.0" width="13.2" height="11.0" />
  <rect class="empty-cell" x="229.8" y="81.0" width="13.2" height="11.0" />
  <rect class="empty-cell" x="245.0" y="81.0" width="13.2" height="11.0" />
  <rect class="empty-cell" x="260.2" y="81.0" width="13.2" height="11.0" />
  <rect class="empty-cell" x="275.4" y="81.0" width="13.2" height="11.0" />
  <rect class="empty-cell" x="290.6" y="81.0" width="13.2" height="11.0" />
  <rect class="empty-cell" x="305.8" y="81.0" width="13.2" height="11.0" />
  <rect class="empty-cell" x="321.0" y="81.0" width="13.2" height="11.0" />
  <rect class="empty-cell" x="336.2" y="81.0" width="13.2" height="11.0" />
  <rect class="empty-cell" x="351.4" y="81.0" width="13.2" height="11.0" />
  <rect class="empty-cell" x="366.6" y="81.0" width="13.2" height="11.0" />
  <rect class="empty-cell" x="381.8" y="81.0" width="13.2" height="11.0" />
  <rect class="empty-cell" x="397.0" y="81.0" width="13.2" height="11.0" />
  <rect class="empty-cell" x="412.2" y="81.0" width="13.2" height="11.0" />
  <rect class="empty-cell" x="427.4" y="81.0" width="13.2" height="11.0" />
  <rect class="empty-cell" x="442.6" y="81.0" width="13.2" height="11.0" />
  <rect class="empty-cell" x="457.8" y="81.0" width="13.2" height="11.0" />
  <rect class="empty-cell" x="473.0" y="81.0" width="13.2" height="11.0" />
  <rect class="empty-cell" x="488.2" y="81.0" width="13.2" height="11.0" />
  <rect class="empty-cell" x="503.4" y="81.0" width="13.2" height="11.0" />
  <rect class="empty-cell" x="518.6" y="81.0" width="13.2" height="11.0" />
  <rect class="empty-cell" x="533.8" y="81.0" width="13.2" height="11.0" />
  <rect class="empty-cell" x="549.0" y="81.0" width="13.2" height="11.0" />
  <rect class="empty-cell" x="564.2" y="81.0" width="13.2" height="11.0" />
  <rect class="empty-cell" x="579.4" y="81.0" width="13.2" height="11.0" />
  <rect class="empty-cell" x="594.6" y="81.0" width="13.2" height="11.0" />
  <rect class="empty-cell" x="609.8" y="81.0" width="13.2" height="11.0" />
  <rect class="empty-cell" x="17.0" y="94.0" width="13.2" height="11.0" />
  <rect class="empty-cell" x="32.2" y="94.0" width="13.2" height="11.0" />
  <rect class="empty-cell" x="47.4" y="94.0" width="13.2" height="11.0" />
  <rect class="empty-cell" x="62.6" y="94.0" width="13.2" height="11.0" />
  <rect class="empty-cell" x="77.8" y="94.0" width="13.2" height="11.0" />
  <rect class="empty-cell" x="93.0" y="94.0" width="13.2" height="11.0" />
  <rect class="empty-cell" x="108.2" y="94.0" width="13.2" height="11.0" />
  <rect class="empty-cell" x="123.4" y="94.0" width="13.2" height="11.0" />
  <rect class="empty-cell" x="138.6" y="94.0" width="13.2" height="11.0" />
  <rect class="empty-cell" x="153.8" y="94.0" width="13.2" height="11.0" />
  <rect class="empty-cell" x="169.0" y="94.0" width="13.2" height="11.0" />
  <rect class="empty-cell" x="184.2" y="94.0" width="13.2" height="11.0" />
  <rect class="empty-cell" x="199.4" y="94.0" width="13.2" height="11.0" />
  <rect class="empty-cell" x="214.6" y="94.0" width="13.2" height="11.0" />
  <rect class="empty-cell" x="229.8" y="94.0" width="13.2" height="11.0" />
  <rect class="empty-cell" x="245.0" y="94.0" width="13.2" height="11.0" />
  <rect class="empty-cell" x="260.2" y="94.0" width="13.2" height="11.0" />
  <rect class="empty-cell" x="275.4" y="94.0" width="13.2" height="11.0" />
  <rect class="empty-cell" x="290.6" y="94.0" width="13.2" height="11.0" />
  <rect class="empty-cell" x="305.8" y="94.0" width="13.2" height="11.0" />
  <rect class="empty-cell" x="321.0" y="94.0" width="13.2" height="11.0" />
  <rect class="empty-cell" x="336.2" y="94.0" width="13.2" height="11.0" />
  <rect class="empty-cell" x="351.4" y="94.0" width="13.2" height="11.0" />
  <rect class="empty-cell" x="366.6" y="94.0" width="13.2" height="11.0" />
  <rect class="empty-cell" x="381.8" y="94.0" width="13.2" height="11.0" />
  <rect class="empty-cell" x="397.0" y="94.0" width="13.2" height="11.0" />
  <rect class="empty-cell" x="412.2" y="94.0" width="13.2" height="11.0" />
  <rect class="empty-cell" x="427.4" y="94.0" width="13.2" height="11.0" />
  <rect class="empty-cell" x="442.6" y="94.0" width="13.2" height="11.0" />
  <rect class="empty-cell" x="457.8" y="94.0" width="13.2" height="11.0" />
  <rect class="empty-cell" x="473.0" y="94.0" width="13.2" height="11.0" />
  <rect class="empty-cell" x="488.2" y="94.0" width="13.2" height="11.0" />
  <rect class="empty-cell" x="503.4" y="94.0" width="13.2" height="11.0" />
  <rect class="empty-cell" x="518.6" y="94.0" width="13.2" height="11.0" />
  <rect class="empty-cell" x="533.8" y="94.0" width="13.2" height="11.0" />
  <rect class="empty-cell" x="549.0" y="94.0" width="13.2" height="11.0" />
  <rect class="empty-cell" x="564.2" y="94.0" width="13.2" height="11.0" />
  <rect class="empty-cell" x="579.4" y="94.0" width="13.2" height="11.0" />
  <rect class="empty-cell" x="594.6" y="94.0" width="13.2" height="11.0" />
  <rect class="empty-cell" x="609.8" y="94.0" width="13.2" height="11.0" />
  <rect class="empty-cell" x="17.0" y="107.0" width="13.2" height="11.0" />
  <rect class="empty-cell" x="32.2" y="107.0" width="13.2" height="11.0" />
  <rect class="empty-cell" x="47.4" y="107.0" width="13.2" height="11.0" />
  <rect class="empty-cell" x="62.6" y="107.0" width="13.2" height="11.0" />
  <rect class="empty-cell" x="77.8" y="107.0" width="13.2" height="11.0" />
  <rect class="empty-cell" x="93.0" y="107.0" width="13.2" height="11.0" />
  <rect class="empty-cell" x="108.2" y="107.0" width="13.2" height="11.0" />
  <rect class="empty-cell" x="123.4" y="107.0" width="13.2" height="11.0" />
  <rect class="empty-cell" x="138.6" y="107.0" width="13.2" height="11.0" />
  <rect class="empty-cell" x="153.8" y="107.0" width="13.2" height="11.0" />
  <rect class="empty-cell" x="169.0" y="107.0" width="13.2" height="11.0" />
  <rect class="empty-cell" x="184.2" y="107.0" width="13.2" height="11.0" />
  <rect class="empty-cell" x="199.4" y="107.0" width="13.2" height="11.0" />
  <rect class="empty-cell" x="214.6" y="107.0" width="13.2" height="11.0" />
  <rect class="empty-cell" x="229.8" y="107.0" width="13.2" height="11.0" />
  <rect class="empty-cell" x="245.0" y="107.0" width="13.2" height="11.0" />
  <rect class="empty-cell" x="260.2" y="107.0" width="13.2" height="11.0" />
  <rect class="empty-cell" x="275.4" y="107.0" width="13.2" height="11.0" />
  <rect class="empty-cell" x="290.6" y="107.0" width="13.2" height="11.0" />
  <rect class="empty-cell" x="305.8" y="107.0" width="13.2" height="11.0" />
  <rect class="empty-cell" x="321.0" y="107.0" width="13.2" height="11.0" />
  <rect class="empty-cell" x="336.2" y="107.0" width="13.2" height="11.0" />
  <rect class="empty-cell" x="351.4" y="107.0" width="13.2" height="11.0" />
  <rect class="empty-cell" x="366.6" y="107.0" width="13.2" height="11.0" />
  <rect class="empty-cell" x="381.8" y="107.0" width="13.2" height="11.0" />
  <rect class="empty-cell" x="397.0" y="107.0" width="13.2" height="11.0" />
  <rect class="empty-cell" x="412.2" y="107.0" width="13.2" height="11.0" />
  <rect class="empty-cell" x="427.4" y="107.0" width="13.2" height="11.0" />
  <rect class="empty-cell" x="442.6" y="107.0" width="13.2" height="11.0" />
  <rect class="empty-cell" x="457.8" y="107.0" width="13.2" height="11.0" />
  <rect class="empty-cell" x="473.0" y="107.0" width="13.2" height="11.0" />
  <rect class="empty-cell" x="488.2" y="107.0" width="13.2" height="11.0" />
  <rect class="empty-cell" x="503.4" y="107.0" width="13.2" height="11.0" />
  <rect class="empty-cell" x="518.6" y="107.0" width="13.2" height="11.0" />
  <rect class="empty-cell" x="533.8" y="107.0" width="13.2" height="11.0" />
  <rect class="empty-cell" x="549.0" y="107.0" width="13.2" height="11.0" />
  <rect class="empty-cell" x="564.2" y="107.0" width="13.2" height="11.0" />
  <rect class="empty-cell" x="579.4" y="107.0" width="13.2" height="11.0" />
  <rect class="empty-cell" x="594.6" y="107.0" width="13.2" height="11.0" />
  <rect class="empty-cell" x="609.8" y="107.0" width="13.2" height="11.0" />
  <g class="p-node-0"><rect x="-1" y="-1" width="2" height="2" fill="currentColor" /></g>
  <g class="p-node-1"><rect x="-1" y="-1" width="2" height="2" fill="currentColor" /></g>
  <g class="p-node-2"><rect x="-1" y="-1" width="2" height="2" fill="currentColor" /></g>
  <g class="p-node-3"><rect x="-1" y="-1" width="2" height="2" fill="currentColor" /></g>
  <g class="p-node-4"><rect x="-1" y="-1" width="2" height="2" fill="currentColor" /></g>
  <g class="p-node-5"><rect x="-1" y="-1" width="2" height="2" fill="currentColor" /></g>
  <g class="p-node-6"><rect x="-1" y="-1" width="2" height="2" fill="currentColor" /></g>
  <g class="p-node-7"><rect x="-1" y="-1" width="2" height="2" fill="currentColor" /></g>
  <g class="p-node-8"><rect x="-1" y="-1" width="2" height="2" fill="currentColor" /></g>
  <g class="p-node-9"><rect x="-1" y="-1" width="2" height="2" fill="currentColor" /></g>
  <g class="p-node-10"><rect x="-1" y="-1" width="2" height="2" fill="currentColor" /></g>
  <g class="p-node-11"><rect x="-1" y="-1" width="2" height="2" fill="currentColor" /></g>
  <g class="p-node-12"><rect x="-1" y="-1" width="2" height="2" fill="currentColor" /></g>
  <g class="p-node-13"><rect x="-1" y="-1" width="2" height="2" fill="currentColor" /></g>
  <g class="p-node-14"><rect x="-1" y="-1" width="2" height="2" fill="currentColor" /></g>
  <g class="p-node-15"><rect x="-1" y="-1" width="2" height="2" fill="currentColor" /></g>
  <g class="p-node-16"><rect x="-1" y="-1" width="2" height="2" fill="currentColor" /></g>
  <g class="p-node-17"><rect x="-1" y="-1" width="2" height="2" fill="currentColor" /></g>
  <g class="ball-container"><circle class="ball-node" cx="0" cy="0" r="4" /></g>
  <g class="paddle-container"><use href="#paddle-graphic" /></g>
</svg>