<svg viewBox="0 0 640 280" width="640" height="280" xmlns="http://www.w3.org/2000/svg">
  <style>
    :root { --empty-cell: #161b22; --score-color: #8b949e; }
    @media (prefers-color-scheme: light) {
      :root { --empty-cell: #ebedf0; --score-color: #57606a; }
    }
    .bg { fill: transparent; }
    .empty-cell { fill: var(--empty-cell); }
    .score-txt { fill: var(--score-color); font-family: -apple-system, BlinkMacSystemFont, "Segoe UI", Helvetica, Arial, sans-serif; font-size: 10px; font-weight: bold; }
    .heart { fill: #ff6b6b; }
    .ball-node { fill: #39d353; }
    .ball-container { animation: ball-motion 2.9s linear infinite; }
    .paddle-container { animation: paddle-motion 2.9s linear infinite; }
    .roll-d100 { animation: score-d100 2.9s linear infinite; }
    .roll-d10 { animation: score-d10 2.9s linear infinite; }
    .roll-d1 { animation: score-d1 2.9s linear infinite; }
    .heart-1 { animation: heart-life-1 2.9s linear infinite; }
    .heart-2 { animation: heart-life-2 2.9s linear infinite; }
    .heart-3 { animation: heart-life-3 2.9s linear infinite; }
    .synthwave-grid { animation: neon-fade 3.2s ease-in-out infinite; }
    @keyframes flame-flicker { 0% { transform: scaleY(0.75); opacity: 0.8; } 100% { transform: scaleY(1.35); opacity: 1; } }
    @keyframes spark-drift { 0% { transform: translateY(0px) scale(0.7); opacity: 1; } 100% { transform: translateY(8px) scale(1.3); opacity: 0; } }
    @keyframes star-twinkle { 0%, 100% { opacity: 0.15; } 50% { opacity: 0.95; } }
    @keyframes cloud-loop { 0% { transform: translateX(-110px); } 100% { transform: translateX(680px); } }
    @keyframes neon-fade { 0%, 100% { opacity: 0.28; } 50% { opacity: 0.92; } }
    @keyframes pulse-glow { 0% { opacity: 0.35; transform: scale(0.9); } 100% { opacity: 0.85; transform: scale(1.15); } }
    @keyframes matrix-stream { 0% { transform: translateY(0); } 100% { transform: translateY(340px); } }
    @keyframes sakura-flutter { 0% { transform: translate(0,-20px) rotate(0deg); opacity: 0; } 10% { opacity: 0.9; } 50% { transform: translate(28px,150px) rotate(180deg); } 90% { opacity: 0.9; } 100% { transform: translate(-12px,320px) rotate(360deg); opacity: 0; } }
    @keyframes ball-motion {
      0.0% { transform: translate(308.6px, 244.2px); }
      1.32% { transform: translate(314.5px, 241.3px); }
      2.63% { transform: translate(320.3px, 238.5px); }
      3.95% { transform: translate(326.1px, 235.6px); }
      5.26% { transform: translate(332.0px, 232.8px); }
      6.58% { transform: translate(337.8px, 229.9px); }
      7.89% { transform: translate(343.7px, 227.1px); }
      9.21% { transform: translate(349.5px, 224.2px); }
      10.53% { transform: translate(355.4px, 221.4px); }
      11.84% { transform: translate(361.2px, 218.5px); }
      13.16% { transform: translate(367.0px, 215.7px); }
      14.47% { transform: translate(372.9px, 212.8px); }
      15.79% { transform: translate(378.7px, 210.0px); }
      17.11% { transform: translate(384.6px, 207.2px); }
      18.42% { transform: translate(390.4px, 204.3px); }
      19.74% { transform: translate(396.3px, 201.5px); }
      21.05% { transform: translate(402.1px, 198.6px); }
      22.37% { transform: translate(408.0px, 195.8px); }
      23.68% { transform: translate(413.8px, 192.9px); }
      25.0% { transform: translate(419.6px, 190.1px); }
      26.32% { transform: translate(425.5px, 187.2px); }
      27.63% { transform: translate(431.3px, 184.4px); }
      28.95% { transform: translate(437.2px, 181.5px); }
      30.26% { transform: translate(443.0px, 178.7px); }
      31.58% { transform: translate(448.9px, 175.9px); }
      32.89% { transform: translate(454.7px, 173.0px); }
      34.21% { transform: translate(460.6px, 170.2px); }
      35.53% { transform: translate(466.4px, 167.3px); }
      36.84% { transform: translate(472.2px, 164.5px); }
      38.16% { transform: translate(478.1px, 161.6px); }
      39.47% { transform: translate(483.9px, 158.8px); }
      40.79% { transform: translate(489.8px, 155.9px); }
      42.11% { transform: translate(495.6px, 153.1px); }
      43.42% { transform: translate(501.5px, 150.2px); }
      44.74% { transform: translate(507.3px, 147.4px); }
      46.05% { transform: translate(513.1px, 144.5px); }
      47.37% { transform: translate(519.0px, 141.7px); }
      48.68% { transform: translate(524.8px, 138.9px); }
      50.0% { transform: translate(530.7px, 136.0px); }
      51.32% { transform: translate(536.5px, 133.2px); }
      52.63% { transform: translate(542.4px, 130.3px); }
      53.95% { transform: translate(548.2px, 127.5px); }
      55.26% { transform: translate(554.1px, 124.6px); }
      56.58% { transform: translate(559.9px, 121.8px); }
      57.89% { transform: translate(565.7px, 118.9px); }
      59.21% { transform: translate(571.6px, 116.1px); }
      60.53% { transform: translate(577.4px, 113.2px); }
      61.84% { transform: translate(583.3px, 110.4px); }
      63.16% { transform: translate(589.1px, 107.5px); }
      64.47% { transform: translate(595.0px, 104.7px); }
      65.79% { transform: translate(600.8px, 101.9px); }
      67.11% { transform: translate(606.6px, 99.0px); }
      68.42% { transform: translate(612.5px, 96.2px); }
      69.74% { transform: translate(618.3px, 93.3px); }
      71.05% { transform: translate(620px, 90.5px); }
      72.37% { transform: translate(614.2px, 87.6px); }
      73.68% { transform: translate(608.3px, 84.8px); }
      75.0% { transform: translate(602.5px, 81.9px); }
      76.32% { transform: translate(596.6px, 79.1px); }
      77.63% { transform: translate(590.8px, 76.2px); }
      78.95% { transform: translate(584.9px, 73.4px); }
      80.26% { transform: translate(579.1px, 70.5px); }
      81.58% { transform: translate(579.1px, 70.5px); }
      82.89% { transform: translate(579.1px, 70.5px); }
      84.21% { transform: translate(579.1px, 70.5px); }
      85.53% { transform: translate(579.1px, 70.5px); }
      86.84% { transform: translate(579.1px, 70.5px); }
      88.16% { transform: translate(579.1px, 70.5px); }
      89.47% { transform: translate(579.1px, 70.5px); }
      90.79% { transform: translate(579.1px, 70.5px); }
      92.11% { transform: translate(579.1px, 70.5px); }
      93.42% { transform: translate(579.1px, 70.5px); }
      94.74% { transform: translate(579.1px, 70.5px); }
      96.05% { transform: translate(579.1px, 70.5px); }
      97.37% { transform: translate(579.1px, 70.5px); }
      98.68% { transform: translate(579.1px, 70.5px); }
      100.0% { transform: translate(579.1px, 70.5px); }
    }
    @keyframes paddle-motion {
      0.0% { transform: translate(270.7px, 255px); }
      1.32% { transform: translate(277.0px, 255px); }
      2.63% { transform: translate(283.8px, 255px); }
      3.95% { transform: translate(289.9px, 255px); }
      5.26% { transform: translate(296.0px, 255px); }
      6.58% { transform: translate(303.0px, 255px); }
      7.89% { transform: translate(308.2px, 255px); }
      9.21% { transform: translate(314.4px, 255px); }
      10.53% { transform: translate(321.3px, 255px); }
      11.84% { transform: translate(326.5px, 255px); }
      13.16% { transform: translate(332.0px, 255px); }
      14.47% { transform: translate(338.1px, 255px); }
      15.79% { transform: translate(345.1px, 255px); }
      17.11% { transform: translate(350.9px, 255px); }
      18.42% { transform: translate(356.6px, 255px); }
      19.74% { transform: translate(361.2px, 255px); }
      21.05% { transform: translate(368.3px, 255px); }
      22.37% { transform: translate(372.8px, 255px); }
      23.68% { transform: translate(379.6px, 255px); }
      25.0% { transform: translate(384.6px, 255px); }
      26.32% { transform: translate(389.5px, 255px); }
      27.63% { transform: translate(394.4px, 255px); }
      28.95% { transform: translate(400.0px, 255px); }
      30.26% { transform: translate(406.0px, 255px); }
      31.58% { transform: translate(411.3px, 255px); }
      32.89% { transform: translate(416.6px, 255px); }
      34.21% { transform: translate(421.9px, 255px); }
      35.53% { transform: translate(427.5px, 255px); }
      36.84% { transform: translate(433.1px, 255px); }
      38.16% { transform: translate(437.8px, 255px); }
      39.47% { transform: translate(442.7px, 255px); }
      40.79% { transform: translate(448.8px, 255px); }
      42.11% { transform: translate(454.5px, 255px); }
      43.42% { transform: translate(459.6px, 255px); }
      44.74% { transform: translate(465.8px, 255px); }
      46.05% { transform: translate(471.7px, 255px); }
      47.37% { transform: translate(477.7px, 255px); }
      48.68% { transform: translate(481.0px, 255px); }
      50.0% { transform: translate(489.1px, 255px); }
      51.32% { transform: translate(495.6px, 255px); }
      52.63% { transform: translate(499.2px, 255px); }
      53.95% { transform: translate(505.5px, 255px); }
      55.26% { transform: translate(511.2px, 255px); }
      56.58% { transform: translate(517.1px, 255px); }
      57.89% { transform: translate(522.9px, 255px); }
      59.21% { transform: translate(530.0px, 255px); }
      60.53% { transform: translate(536.7px, 255px); }
      61.84% { transform: translate(543.1px, 255px); }
      63.16% { transform: translate(548.7px, 255px); }
      64.47% { transform: translate(549px, 255px); }
      65.79% { transform: translate(549px, 255px); }
      67.11% { transform: translate(549px, 255px); }
      68.42% { transform: translate(549px, 255px); }
      69.74% { transform: translate(549px, 255px); }
      71.05% { transform: translate(549px, 255px); }
      72.37% { transform: translate(549px, 255px); }
      73.68% { transform: translate(549px, 255px); }
      75.0% { transform: translate(549px, 255px); }
      76.32% { transform: translate(549px, 255px); }
      77.63% { transform: translate(549px, 255px); }
      78.95% { transform: translate(549px, 255px); }
      80.26% { transform: translate(544.8px, 255px); }
      81.58% { transform: translate(544.8px, 255px); }
      82.89% { transform: translate(544.8px, 255px); }
      84.21% { transform: translate(544.8px, 255px); }
      85.53% { transform: translate(544.8px, 255px); }
      86.84% { transform: translate(544.8px, 255px); }
      88.16% { transform: translate(544.8px, 255px); }
      89.47% { transform: translate(544.8px, 255px); }
      90.79% { transform: translate(544.8px, 255px); }
      92.11% { transform: translate(544.8px, 255px); }
      93.42% { transform: translate(544.8px, 255px); }
      94.74% { transform: translate(544.8px, 255px); }
      96.05% { transform: translate(544.8px, 255px); }
      97.37% { transform: translate(544.8px, 255px); }
      98.68% { transform: translate(544.8px, 255px); }
      100.0% { transform: translate(544.8px, 255px); }
    }
    @keyframes p-drift-0 {
      0.0%, 100.0% { opacity: 0; }
    }
    .p-node-0 { animation: p-drift-0 2.9s linear infinite; }
    @keyframes p-drift-1 {
      0.0%, 100.0% { opacity: 0; }
    }
    .p-node-1 { animation: p-drift-1 2.9s linear infinite; }
    @keyframes p-drift-2 {
      0.0%, 100.0% { opacity: 0; }
    }
    .p-node-2 { animation: p-drift-2 2.9s linear infinite; }
    @keyframes p-drift-3 {
      0.0%, 100.0% { opacity: 0; }
    }
    .p-node-3 { animation: p-drift-3 2.9s linear infinite; }
    @keyframes p-drift-4 {
      0.0%, 100.0% { opacity: 0; }
    }
    .p-node-4 { animation: p-drift-4 2.9s linear infinite; }
    @keyframes p-drift-5 {
      0.0%, 100.0% { opacity: 0; }
    }
    .p-node-5 { animation: p-drift-5 2.9s linear infinite; }
    @keyframes p-drift-6 {
      0.0%, 100.0% { opacity: 0; }
    }
    .p-node-6 { animation: p-drift-6 2.9s linear infinite; }
    @keyframes p-drift-7 {
      0.0%, 100.0% { opacity: 0; }
    }
    .p-node-7 { animation: p-drift-7 2.9s linear infinite; }
    @keyframes p-drift-8 {
      0.0%, 100.0% { opacity: 0; }
    }
    .p-node-8 { animation: p-drift-8 2.9s linear infinite; }
    @keyframes p-drift-9 {
      0.0%, 100.0% { opacity: 0; }
    }
    .p-node-9 { animation: p-drift-9 2.9s linear infinite; }
    @keyframes p-drift-10 {
      0.0%, 100.0% { opacity: 0; }
    }
    .p-node-10 { animation: p-drift-10 2.9s linear infinite; }
    @keyframes p-drift-11 {
      0.0%, 100.0% { opacity: 0; }
    }
    .p-node-11 { animation: p-drift-11 2.9s linear infinite; }
    @keyframes p-drift-12 {
      0.0%, 100.0% { opacity: 0; }
    }
    .p-node-12 { animation: p-drift-12 2.9s linear infinite; }
    @keyframes p-drift-13 {
      0.0%, 100.0% { opacity: 0; }
    }
    .p-node-13 { animation: p-drift-13 2.9s linear infinite; }
    @keyframes p-drift-14 {
      0.0%, 100.0% { opacity: 0; }
    }
    .p-node-14 { animation: p-drift-14 2.9s linear infinite; }
    @keyframes p-drift-15 {
      0.0%, 100.0% { opacity: 0; }
    }
    .p-node-15 { animation: p-drift-15 2.9s linear infinite; }
    @keyframes p-drift-16 {
      0.0%, 100.0% { opacity: 0; }
    }
    .p-node-16 { animation: p-drift-16 2.9s linear infinite; }
    @keyframes p-drift-17 {
      0.0%, 100.0% { opacity: 0; }
    }
    .p-node-17 { animation: p-drift-17 2.9s linear infinite; }
    @keyframes score-d100 {
      0.0%, 100.0% { transform: translateY(-0px); }
    }
    @keyframes score-d10 {
      0.0%, 100.0% { transform: translateY(-0px); }
    }
    @keyframes score-d1 {
      0.0%, 78.95% { transform: translateY(-0px); }
      80.26%, 100.0% { transform: translateY(-12px); }
    }
    @keyframes heart-life-1 {
      0.0%, 100.0% { opacity: 1; }
    }
    @keyframes heart-life-2 {
      0.0%, 100.0% { opacity: 1; }
    }
    @keyframes heart-life-3 {
      0.0%, 100.0% { opacity: 1; }
    }
    @keyframes b0 { 0%, 80.26% { fill: #006d32; opacity: 1; } 80.28%, 100% { opacity: 0; } }
    .b0 { fill: #006d32; animation: b0 2.9s linear infinite; }
  </style>
  <defs>
    <g id="paddle-graphic">
      <rect x="0" y="0" width="75" height="8" rx="3" fill="#58a6ff" />
    </g>
    <clipPath id="score-clip"><rect x="0" y="0" width="30" height="12" /></clipPath>
  </defs>
  <rect class="bg" width="100%" height="100%" />
  <rect x="139.4" y="100.0" width="1" height="1" fill="#ffffff" style="animation: star-twinkle 1.5s ease-in-out infinite 0.0s;" />
  <rect x="103.8" y="193.3" width="1" height="1" fill="#ffffff" style="animation: star-twinkle 1.9s ease-in-out infinite 0.3s;" />
  <rect x="175.2" y="227.0" width="1" height="1" fill="#ffffff" style="animation: star-twinkle 2.3s ease-in-out infinite 0.6s;" />
  <rect x="526.7" y="87.8" width="1" height="1" fill="#ffffff" style="animation: star-twinkle 2.7s ease-in-out infinite 0.9s;" />
  <rect x="110.1" y="147.3" width="1" height="1" fill="#ffffff" style="animation: star-twinkle 3.1s ease-in-out infinite 1.2s;" />
  <rect x="261.1" y="143.8" width="2" height="2" fill="#ffffff" style="animation: star-twinkle 1.5s ease-in-out infinite 1.5s;" />
  <rect x="606.8" y="45.1" width="1" height="1" fill="#ffffff" style="animation: star-twinkle 1.9s ease-in-out infinite 1.8s;" />
  <rect x="521.4" y="14.0" width="1" height="1" fill="#ffffff" style="animation: star-twinkle 2.3s ease-in-out infinite 0.0s;" />
  <rect x="100.7" y="204.4" width="1" height="1" fill="#ffffff" style="animation: star-twinkle 2.7s ease-in-out infinite 0.3s;" />
  <rect x="524.7" y="43.4" width="1" height="1" fill="#ffffff" style="animation: star-twinkle 3.1s ease-in-out infinite 0.6s;" />
  <rect x="312.9" y="30.1" width="1" height="1" fill="#ffffff" style="animation: star-twinkle 1.5s ease-in-out infinite 0.9s;" />
  <rect x="56.9" y="210.7" width="1" height="1" fill="#ffffff" style="animation: star-twinkle 1.9s ease-in-out infinite 1.2s;" />
  <rect x="539.1" y="71.0" width="1" height="1" fill="#ffffff" style="animation: star-twinkle 2.3s ease-in-out infinite 1.5s;" />
  <rect x="184.4" y="79.4" width="1" height="1" fill="#ffffff" style="animation: star-twinkle 2.7s ease-in-out infinite 1.8s;" />
  <rect x="388.3" y="255.3" width="1" height="1" fill="#ffffff" style="animation: star-twinkle 3.1s ease-in-out infinite 0.0s;" />
  <rect x="425.4" y="8.8" width="1" height="1" fill="#ffffff" style="animation: star-twinkle 1.5s ease-in-out infinite 0.3s;" />
  <rect x="369.0" y="203.3" width="1" height="1" fill="#ffffff" style="animation: star-twinkle 1.9s ease-in-out infinite 0.6s;" />
  <rect x="87.6" y="10.1" width="2" height="2" fill="#ffffff" style="animation: star-twinkle 2.3s ease-in-out infinite 0.9s;" />
  <rect x="42.2" y="192.4" width="1" height="1" fill="#ffffff" style="animation: star-twinkle 2.7s ease-in-out infinite 1.2s;" />
  <rect x="96.8" y="65.7" width="1" height="1" fill="#ffffff" style="animation: star-twinkle 3.1s ease-in-out infinite 1.5s;" />
  <rect x="482.5" y="220.1" width="2" height="2" fill="#ffffff" style="animation: star-twinkle 1.5s ease-in-out infinite 1.8s;" />
  <rect x="358.6" y="196.2" width="1" height="1" fill="#ffffff" style="animation: star-twinkle 1.9s ease-in-out infinite 0.0s;" />
  <rect x="496.9" y="52.9" width="1" height="1" fill="#ffffff" style="animation: star-twinkle 2.3s ease-in-out infinite 0.3s;" />
  <rect x="379.5" y="105.9" width="2" height="2" fill="#ffffff" style="animation: star-twinkle 2.7s ease-in-out infinite 0.6s;" />
  <rect x="631.3" y="41.3" width="1" height="1" fill="#ffffff" style="animation: star-twinkle 3.1s ease-in-out infinite 0.9s;" />
  <rect x="259.4" y="156.0" width="2" height="2" fill="#ffffff" style="animation: star-twinkle 1.5s ease-in-out infinite 1.2s;" />
  <rect x="459.9" y="92.4" width="2" height="2" fill="#ffffff" style="animation: star-twinkle 1.9s ease-in-out infinite 1.5s;" />
  <rect x="582.3" y="33.4" width="1" height="1" fill="#ffffff" style="animation: star-twinkle 2.3s ease-in-out infinite 1.8s;" />
  <rect x="260.4" y="79.3" width="1" height="1" fill="#ffffff" style="animation: star-twinkle 2.7s ease-in-out infinite 0.0s;" />
  <rect x="467.3" y="210.0" width="1" height="1" fill="#ffffff" style="animation: star-twinkle 3.1s ease-in-out infinite 0.3s;" />
  <rect x="539.6" y="236.5" width="1" height="1" fill="#ffffff" style="animation: star-twinkle 1.5s ease-in-out infinite 0.6s;" />
  <rect x="568.5" y="52.6" width="2" height="2" fill="#ffffff" style="animation: star-twinkle 1.9s ease-in-out infinite 0.9s;" />
  <rect x="310.8" y="132.0" width="1" height="1" fill="#ffffff" style="animation: star-twinkle 2.3s ease-in-out infinite 1.2s;" />
  <rect x="218.9" y="249.8" width="1" height="1" fill="#ffffff" style="animation: star-twinkle 2.7s ease-in-out infinite 1.5s;" />
  <rect x="33.0" y="106.6" width="1" height="1" fill="#ffffff" style="animation: star-twinkle 3.1s ease-in-out infinite 1.8s;" />
  <text class="score-txt" x="16" y="18">SCORE:</text>
  <g transform="translate(62, 8)" clip-path="url(#score-clip)">
    <g class="roll-d100"><text class="score-txt" x="0" y="10"><tspan x="0" dy="0">0</tspan><tspan x="0" dy="12">1</tspan><tspan x="0" dy="12">2</tspan><tspan x="0" dy="12">3</tspan><tspan x="0" dy="12">4</tspan><tspan x="0" dy="12">5</tspan><tspan x="0" dy="12">6</tspan><tspan x="0" dy="12">7</tspan><tspan x="0" dy="12">8</tspan><tspan x="0" dy="12">9</tspan></text></g>
    <g class="roll-d10"><text class="score-txt" x="7" y="10"><tspan x="7" dy="0">0</tspan><tspan x="7" dy="12">1</tspan><tspan x="7" dy="12">2</tspan><tspan x="7" dy="12">3</tspan><tspan x="7" dy="12">4</tspan><tspan x="7" dy="12">5</tspan><tspan x="7" dy="12">6</tspan><tspan x="7" dy="12">7</tspan><tspan x="7" dy="12">8</tspan><tspan x="7" dy="12">9</tspan></text></g>
    <g class="roll-d1"><text class="score-txt" x="14" y="10"><tspan x="14" dy="0">0</tspan><tspan x="14" dy="12">1</tspan><tspan x="14" dy="12">2</tspan><tspan x="14" dy="12">3</tspan><tspan x="14" dy="12">4</tspan><tspan x="14" dy="12">5</tspan><tspan x="14" dy="12">6</tspan><tspan x="14" dy="12">7</tspan><tspan x="14" dy="12">8</tspan><tspan x="14" dy="12">9</tspan></text></g>
  </g>
  <text class="score-txt" x="84" y="18">/1</text>
  <path class="heart heart-1" d="M 576 19 L 571 14 L 571 12 L 574 9 L 576 12 L 578 9 L 581 12 L 581 14 Z" />
  <path class="heart heart-2" d="M 592 19 L 587 14 L 587 12 L 590 9 L 592 12 L 594 9 L 597 12 L 597 14 Z" />
  <path class="heart heart-3" d="M 608 19 L 603 14 L 603 12 L 606 9 L 608 12 L 610 9 L 613 12 L 613 14 Z" />
  <rect class="empty-cell" x="17.0" y="29.0" width="13.2" height="11.0" />
  <rect class="empty-cell" x="32.2" y="29.0" width="13.2" height="11.0" />
  <rect class="empty-cell" x="47.4" y="29.0" width="13.2" height="11.0" />
  <rect class="empty-cell" x="62.6" y="29.0" width="13.2" height="11.0" />
  <rect class="empty-cell" x="77.8" y="29.0" width="13.2" height="11.0" />
  <rect class="empty-cell" x="93.0" y="29.0" width="13.2" height="11.0" />
  <rect class="empty-cell" x="108.2" y="29.0" width="13.2" height="11.0" />
  <rect class="empty-cell" x="123.4" y="29.0" width="13.2" height="11.0" />
  <rect class="empty-cell" x="138.6" y="29.0" width="13.2" height="11.0" />
  <rect class="empty-cell" x="153.8" y="29.0" width="13.2" height="11.0" />
  <rect class="empty-cell" x="169.0" y="29.0" width="13.2" height="11.0" />
  <rect class="empty-cell" x="184.2" y="29.0" width="13.2" height="11.0" />
  <rect class="empty-cell" x="199.4" y="29.0" width="13.2" height="11.0" />
  <rect class="empty-cell" x="214.6" y="29.0" width="13.2" height="11.0" />
  <rect class="empty-cell" x="229.8" y="29.0" width="13.2" height="11.0" />
  <rect class="empty-cell" x="245.0" y="29.0" width="13.2" height="11.0" />
  <rect class="empty-cell" x="260.2" y="29.0" width="13.2" height="11.0" />
  <rect class="empty-cell" x="275.4" y="29.0" width="13.2" height="11.0" />
  <rect class="empty-cell" x="290.6" y="29.0" width="13.2" height="11.0" />
  <rect class="empty-cell" x="305.8" y="29.0" width="13.2" height="11.0" />
  <rect class="empty-cell" x="321.0" y="29.0" width="13.2" height="11.0" />
  <rect class="empty-cell" x="336.2" y="29.0" width="13.2" height="11.0" />
  <rect class="empty-cell" x="351.4" y="29.0" width="13.2" height="11.0" />
  <rect class="empty-cell" x="366.6" y="29.0" width="13.2" height="11.0" />
  <rect class="empty-cell" x="381.8" y="29.0" width="13.2" height="11.0" />
  <rect class="empty-cell" x="397.0" y="29.0" width="13.2" height="11.0" />
  <rect class="empty-cell" x="412.2" y="29.0" width="13.2" height="11.0" />
  <rect class="empty-cell" x="427.4" y="29.0" width="13.2" height="11.0" />
  <rect class="empty-cell" x="442.6" y="29.0" width="13.2" height="11.0" />
  <rect class="empty-cell" x="457.8" y="29.0" width="13.2" height="11.0" />
  <rect class="empty-cell" x="473.0" y="29.0" width="13.2" height="11.0" />
  <rect class="empty-cell" x="488.2" y="29.0" width="13.2" height="11.0" />
  <rect class="empty-cell" x="503.4" y="29.0" width="13.2" height="11.0" />
  <rect class="empty-cell" x="518.6" y="29.0" width="13.2" height="11.0" />
  <rect class="empty-cell" x="533.8" y="29.0" width="13.2" height="11.0" />
  <rect class="empty-cell" x="549.0" y="29.0" width="13.2" height="11.0" />
  <rect class="empty-cell" x="564.2" y="29.0" width="13.2" height="11.0" />
  <rect class="empty-cell" x="579.4" y="29.0" width="13.2" height="11.0" />
  <rect class="empty-cell" x="594.6" y="29.0" width="13.2" height="11.0" />
  <rect class="empty-cell" x="609.8" y="29.0" width="13.2" height="11.0" />
  <rect class="empty-cell" x="17.0" y="42.0" width="13.2" height="11.0" />
  <rect class="empty-cell" x="32.2" y="42.0" width="13.2" height="11.0" />
  <rect class="empty-cell" x="47.4" y="42.0" width="13.2" height="11.0" />
  <rect class="empty-cell" x="62.6" y="42.0" width="13.2" height="11.0" />
  <rect class="empty-cell" x="77.8" y="42.0" width="13.2" height="11.0" />
  <rect class="empty-cell" x="93.0" y="42.0" width="13.2" height="11.0" />
  <rect class="empty-cell" x="108.2" y="42.0" width="13.2" height="11.0" />
  <rect class="empty-cell" x="123.4" y="42.0" width="13.2" height="11.0" />
  <rect class="empty-cell" x="138.6" y="42.0" width="13.2" height="11.0" />
  <rect class="empty-cell" x="153.8" y="42.0" width="13.2" height="11.0" />
  <rect class="empty-cell" x="169.0" y="42.0" width="13.2" height="11.0" />
  <rect class="empty-cell" x="184.2" y="42.0" width="13.2" height="11.0" />
  <rect class="empty-cell" x="199.4" y="42.0" width="13.2" height="11.0" />
  <rect class="empty-cell" x="214.6" y="42.0" width="13.2" height="11.0" />
  <rect class="empty-cell" x="229.8" y="42.0" width="13.2" height="11.0" />
  <rect class="empty-cell" x="245.0" y="42.0" width="13.2" height="11.0" />
  <rect class="empty-cell" x="260.2" y="42.0" width="13.2" height="11.0" />
  <rect class="empty-cell" x="275.4" y="42.0" width="13.2" height="11.0" />
  <rect class="empty-cell" x="290.6" y="42.0" width="13.2" height="11.0" />
  <rect class="empty-cell" x="305.8" y="42.0" width="13.2" height="11.0" />
  <rect class="empty-cell" x="321.0" y="42.0" width="13.2" height="11.0" />
  <rect class="empty-cell" x="336.2" y="42.0" width="13.2" height="11.0" />
  <rect class="empty-cell" x="351.4" y="42.0" width="13.2" height="11.0" />
  <rect class="empty-cell" x="366.6" y="42.0" width="13.2" height="11.0" />
  <rect class="empty-cell" x="381.8" y="42.0" width="13.2" height="11.0" />
  <rect class="empty-cell" x="397.0" y="42.0" width="13.2" height="11.0" />
  <rect class="empty-cell" x="412.2" y="42.0" width="13.2" height="11.0" />
  <rect class="empty-cell" x="427.4" y="42.0" width="13.2" height="11.0" />
  <rect class="empty-cell" x="442.6" y="42.0" width="13.2" height="11.0" />
  <rect class="empty-cell" x="457.8" y="42.0" width="13.2" height="11.0" />
  <rect class="empty-cell" x="473.0" y="42.0" width="13.2" height="11.0" />
  <rect class="empty-cell" x="488.2" y="42.0" width="13.2" height="11.0" />
  <rect class="empty-cell" x="503.4" y="42.0" width="13.2" height="11.0" />
  <rect class="empty-cell" x="518.6" y="42.0" width="13.2" height="11.0" />
  <rect class="empty-cell" x="533.8" y="42.0" width="13.2" height="11.0" />
  <rect class="empty-cell" x="549.0" y="42.0" width="13.2" height="11.0" />
  <rect class="empty-cell" x="564.2" y="42.0" width="13.2" height="11.0" />
  <rect class="empty-cell" x="579.4" y="42.0" width="13.2" height="11.0" />
  <rect class="empty-cell" x="594.6" y="42.0" width="13.2" height="11.0" />
  <rect class="empty-cell" x="609.8" y="42.0" width="13.2" height="11.0" />
  <rect class="empty-cell" x="17.0" y="55.0" width="13.2" height="11.0" />
  <rect class="empty-cell" x="32.2" y="55.0" width="13.2" height="11.0" />
  <rect class="empty-cell" x="47.4" y="55.0" width="13.2" height="11.0" />
  <rect class="empty-cell" x="62.6" y="55.0" width="13.2" height="11.0" />
  <rect class="empty-cell" x="77.8" y="55.0" width="13.2" height="11.0" />
  <rect class="empty-cell" x="93.0" y="55.0" width="13.2" height="11.0" />
  <rect class="empty-cell" x="108.2" y="55.0" width="13.2" height="11.0" />
  <rect class="empty-cell" x="123.4" y="55.0" width="13.2" height="11.0" />
  <rect class="empty-cell" x="138.6" y="55.0" width="13.2" height="11.0" />
  <rect class="empty-cell" x="153.8" y="55.0" width="13.2" height="11.0" />
  <rect class="empty-cell" x="169.0" y="55.0" width="13.2" height="11.0" />
  <rect class="empty-cell" x="184.2" y="55.0" width="13.2" height="11.0" />
  <rect class="empty-cell" x="199.4" y="55.0" width="13.2" height="11.0" />
  <rect class="empty-cell" x="214.6" y="55.0" width="13.2" height="11.0" />
  <rect class="empty-cell" x="229.8" y="55.0" width="13.2" height="11.0" />
  <rect class="empty-cell" x="245.0" y="55.0" width="13.2" height="11.0" />
  <rect class="empty-cell" x="260.2" y="55.0" width="13.2" height="11.0" />
  <rect class="empty-cell" x="275.4" y="55.0" width="13.2" height="11.0" />
  <rect class="empty-cell" x="290.6" y="55.0" width="13.2" height="11.0" />
  <rect class="empty-cell" x="305.8" y="55.0" width="13.2" height="11.0" />
  <rect class="empty-cell" x="321.0" y="55.0" width="13.2" height="11.0" />
  <rect class="empty-cell" x="336.2" y="55.0" width="13.2" height="11.0" />
  <rect class="empty-cell" x="351.4" y="55.0" width="13.2" height="11.0" />
  <rect class="empty-cell" x="366.6" y="55.0" width="13.2" height="11.0" />
  <rect class="empty-cell" x="381.8" y="55.0" width="13.2" height="11.0" />
  <rect class="empty-cell" x="397.0" y="55.0" width="13.2" height="11.0" />
  <rect class="empty-cell" x="412.2" y="55.0" width="13.2" height="11.0" />
  <rect class="empty-cell" x="427.4" y="55.0" width="13.2" height="11.0" />
  <rect class="empty-cell" x="442.6" y="55.0" width="13.2" height="11.0" />
  <rect class="empty-cell" x="457.8" y="55.0" width="13.2" height="11.0" />
  <rect class="empty-cell" x="473.0" y="55.0" width="13.2" height="11.0" />
  <rect class="empty-cell" x="488.2" y="55.0" width="13.2" height="11.0" />
  <rect class="empty-cell" x="503.4" y="55.0" width="13.2" height="11.0" />
  <rect class="empty-cell" x="518.6" y="55.0" width="13.2" height="11.0" />
  <rect class="empty-cell" x="533.8" y="55.0" width="13.2" height="11.0" />
  <rect class="empty-cell" x="549.0" y="55.0" width="13.2" height="11.0" />
  <rect class="empty-cell" x="564.2" y="55.0" width="13.2" height="11.0" />
  <rect class="empty-cell" x="579.4" y="55.0" width="13.2" height="11.0" />
  <rect class="b0" x="579.4" y="55.0" width="13.2" height="11.0" />
  <rect class="empty-cell" x="594.6" y="55.0" width="13.2" height="11.0" />
  <rect class="empty-cell" x="609.8" y="55.0" width="13.2" height="11.0" />
  <rect class="empty-cell" x="17.0" y="68.0" width="13.2" height="11.0" />
  <rect class="empty-cell" x="32.2" y="68.0" width="13.2" height="11.0" />
  <rect class="empty-cell" x="47.4" y="68.0" width="13.2" height="11.0" />
  <rect class="empty-cell" x="62.6" y="68.0" width="13.2" height="11.0" />
  <rect class="empty-cell" x="77.8" y="68.0" width="13.2" height="11.0" />
  <rect class="empty-cell" x="93.0" y="68.0" width="13.2" height="11.0" />
  <rect class="empty-cell" x="108.2" y="68.0" width="13.2" height="11.0" />
  <rect class="empty-cell" x="123.4" y="68.0" width="13.2" height="11.0" />
  <rect class="empty-cell" x="138.6" y="68.0" width="13.2" height="11.0" />
  <rect class="empty-cell" x="153.8" y="68.0" width="13.2" height="11.0" />
  <rect class="empty-cell" x="169.0" y="68.0" width="13.2" height="11.0" />
  <rect class="empty-cell" x="184.2" y="68.0" width="13.2" height="11.0" />
  <rect class="empty-cell" x="199.4" y="68.0" width="13.2" height="11.0" />
  <rect class="empty-cell" x="214.6" y="68.0" width="13.2" height="11.0" />
  <rect class="empty-cell" x="229.8" y="68.0" width="13.2" height="11.0" />
  <rect class="empty-cell" x="245.0" y="68.0" width="13.2" height="11.0" />
  <rect class="empty-cell" x="260.2" y="68.0" width="13.2" height="11.0" />
  <rect class="empty-cell" x="275.4" y="68.0" width="13.2" height="11.0" />
  <rect class="empty-cell" x="290.6" y="68.0" width="13.2" height="11.0" />
  <rect class="empty-cell" x="305.8" y="68.0" width="13.2" height="11.0" />
  <rect class="empty-cell" x="321.0" y="68.0" width="13.2" height="11.0" />
  <rect class="empty-cell" x="336.2" y="68.0" width="13.2" height="11.0" />
  <rect class="empty-cell" x="351.4" y="68.0" width="13.2" height="11.0" />
  <rect class="empty-cell" x="366.6" y="68.0" width="13.2" height="11.0" />
  <rect class="empty-cell" x="381.8" y="68.0" width="13.2" height="11.0" />
  <rect class="empty-cell" x="397.0" y="68.0" width="13.2" height="11.0" />
  <rect class="empty-cell" x="412.2" y="68.0" width="13.2" height="11.0" />
  <rect class="empty-cell" x="427.4" y="68.0" width="13.2" height="11.0" />
  <rect class="empty-cell" x="442.6" y="68.0" width="13.2" height="11.0" />
  <rect class="empty-cell" x="457.8" y="68.0" width="13.2" height="11.0" />
  <rect class="empty-cell" x="473.0" y="68.0" width="13.2" height="11.0" />
  <rect class="empty-cell" x="488.2" y="68.0" width="13.2" height="11.0" />
  <rect class="empty-cell" x="503.4" y="68.0" width="13.2" height="11.0" />
  <rect class="empty-cell" x="518.6" y="68.0" width="13.2" height="11.0" />
  <rect class="empty-cell" x="533.8" y="68.0" width="13.2" height="11.0" />
  <rect class="empty-cell" x="549.0" y="68.0" width="13.2" height="11.0" />
  <rect class="empty-cell" x="564.2" y="68.0" width="13.2" height="11.0" />
  <rect class="empty-cell" x="579.4" y="68.0" width="13.2" height="11.0" />
  <rect class="empty-cell" x="594.6" y="68.0" width="13.2" height="11.0" />
  <rect class="empty-cell" x="609.8" y="68.0" width="13.2" height="11.0" />
  <rect class="empty-cell" x="17.0" y="81.0" width="13.2" height="11.0" />
  <rect class="empty-cell" x="32.2" y="81.0" width="13.2" height="11.0" />
  <rect class="empty-cell" x="47.4" y="81.0" width="13.2" height="11.0" />
  <rect class="empty-cell" x="62.6" y="81.0" width="13.2" height="11.0" />
  <rect class="empty-cell" x="77.8" y="81.0" width="13.2" height="11.0" />
  <rect class="empty-cell" x="93.0" y="81.0" width="13.2" height="11.0" />
  <rect class="empty-cell" x="108.2" y="81.0" width="13.2" height="11.0" />
  <rect class="empty-cell" x="123.4" y="81.0" width="13.2" height="11.0" />
  <rect class="empty-cell" x="138.6" y="81.0" width="13.2" height="11.0" />
  <rect class="empty-cell" x="153.8" y="81.0" width="13.2" height="11.0" />
  <rect class="empty-cell" x="169.0" y="81.0" width="13.2" height="11.0" />
  <rect class="empty-cell" x="184.2" y="81.0" width="13.2" height="11.0" />
  <rect class="empty-cell" x="199.4" y="81.0" width="13.2" height="11.0" />
  <rect class="empty-cell" x="214.6" y="81.0" width="13.2" height="11.0" />
  <rect class="empty-cell" x="229.8" y="81.0" width="13.2" height="11.0" />
  <rect class="empty-cell" x="245.0" y="81.0" width="13.2" height="11.0" />
  <rect class="empty-cell" x="260.2" y="81.0" width="13.2" height="11.0" />
  <rect class="empty-cell" x="275.4" y="81.0" width="13.2" height="11.0" />
  <rect class="empty-cell" x="290.6" y="81.0" width="13.2" height="11.0" />
  <rect class="empty-cell" x="305.8" y="81.0" width="13.2" height="11.0" />
  <rect class="empty-cell" x="321.0" y="81.0" width="13.2" height="11.0" />
  <rect class="empty-cell" x="336.2" y="81.0" width="13.2" height="11.0" />
  <rect class="empty-cell" x="351.4" y="81.0" width="13.2" height="11.0" />
  <rect class="empty-cell" x="366.6" y="81.0" width="13.2" height="11.0" />
  <rect class="empty-cell" x="381.8" y="81.0" width="13.2" height="11.0" />
  <rect class="empty-cell" x="397.0" y="81.0" width="13.2" height="11.0" />
  <rect class="empty-cell" x="412.2" y="81.0" width="13.2" height="11.0" />
  <rect class="empty-cell" x="427.4" y="81.0" width="13.2" height="11.0" />
  <rect class="empty-cell" x="442.6" y="81.0" width="13.2" height="11.0" />
  <rect class="empty-cell" x="457.8" y="81.0" width="13.2" height="11.0" />
  <rect class="empty-cell" x="473.0" y="81.0" width="13.2" height="11.0" />
  <rect class="empty-cell" x="488.2" y="81.0" width="13.2" height="11.0" />
  <rect class="empty-cell" x="503.4" y="81.0" width="13.2" height="11.0" />
  <rect class="empty-cell" x="518.6" y="81.0" width="13.2" height="11.0" />
  <rect class="empty-cell" x="533.8" y="81.0" width="13.2" height="11.0" />
  <rect class="empty-cell" x="549.0" y="81.0" width="13.2" height="11.0" />
  <rect class="empty-cell" x="564.2" y="81.0" width="13.2" height="11.0" />
  <rect class="empty-cell" x="579.4" y="81.0" width="13.2" height="11.0" />
  <rect class="empty-cell" x="594.6" y="81.0" width="13.2" height="11.0" />
  <rect class="empty-cell" x="609.8" y="81.0" width="13.2" height="11.0" />
  <rect class="empty-cell" x="17.0" y="94.0" width="13.2" height="11.0" />
  <rect class="empty-cell" x="32.2" y="94.0" width="13.2" height="11.0" />
  <rect class="empty-cell" x="47.4" y="94.0" width="13.2" height="11.0" />
  <rect class="empty-cell" x="62.6" y="94.0" width="13.2" height="11.0" />
  <rect class="empty-cell" x="77.8" y="94.0" width="13.2" height="11.0" />
  <rect class="empty-cell" x="93.0" y="94.0" width="13.2" height="11.0" />
  <rect class="empty-cell" x="108.2" y="94.0" width="13.2" height="11.0" />
  <rect class="empty-cell" x="123.4" y="94.0" width="13.2" height="11.0" />
  <rect class="empty-cell" x="138.6" y="94.0" width="13.2" height="11.0" />
  <rect class="empty-cell" x="153.8" y="94.0" width="13.2" height="11.0" />
  <rect class="empty-cell" x="169.0" y="94.0" width="13.2" height="11.0" />
  <rect class="empty-cell" x="184.2" y="94.0" width="13.2" height="11.0" />
  <rect class="empty-cell" x="199.4" y="94.0" width="13.2" height="11.0" />
  <rect class="empty-cell" x="214.6" y="94.0" width="13.2" height="11.0" />
  <rect class="empty-cell" x="229.8" y="94.0" width="13.2" height="11.0" />
  <rect class="empty-cell" x="245.0" y="94.0" width="13.2" height="11.0" />
  <rect class="empty-cell" x="260.2" y="94.0" width="13.2" height="11.0" />
  <rect class="empty-cell" x="275.4" y="94.0" width="13.2" height="11.0" />
  <rect class="empty-cell" x="290.6" y="94.0" width="13.2" height="11.0" />
  <rect class="empty-cell" x="305.8" y="94.0" width="13.2" height="11.0" />
  <rect class="empty-cell" x="321.0" y="94.0" width="13.2" height="11.0" />
  <rect class="empty-cell" x="336.2" y="94.0" width="13.2" height="11.0" />
  <rect class="empty-cell" x="351.4" y="94.0" width="13.2" height="11.0" />
  <rect class="empty-cell" x="366.6" y="94.0" width="13.2" height="11.0" />
  <rect class="empty-cell" x="381.8" y="94.0" width="13.2" height="11.0" />
  <rect class="empty-cell" x="397.0" y="94.0" width="13.2" height="11.0" />
  <rect class="empty-cell" x="412.2" y="94.0" width="13.2" height="11.0" />
  <rect class="empty-cell" x="427.4" y="94.0" width="13.2" height="11.0" />
  <rect class="empty-cell" x="442.6" y="94.0" width="13.2" height="11.0" />
  <rect class="empty-cell" x="457.8" y="94.0" width="13.2" height="11.0" />
  <rect class="empty-cell" x="473.0" y="94.0" width="13.2" height="11.0" />
  <rect class="empty-cell" x="488.2" y="94.0" width="13.2" height="11.0" />
  <rect class="empty-cell" x="503.4" y="94.0" width="13.2" height="11.0" />
  <rect class="empty-cell" x="518.6" y="94.0" width="13.2" height="11.0" />
  <rect class="empty-cell" x="533.8" y="94.0" width="13.2" height="11.0" />
  <rect class="empty-cell" x="549.0" y="94.0" width="13.2" height="11.0" />
  <rect class="empty-cell" x="564.2" y="94.0" width="13.2" height="11.0" />
  <rect class="empty-cell" x="579.4" y="94.0" width="13.2" height="11.0" />
  <rect class="empty-cell" x="594.6" y="94.0" width="13.2" height="11.0" />
  <rect class="empty-cell" x="609.8" y="94.0" width="13.2" height="11.0" />
  <rect class="empty-cell" x="17.0" y="107.0" width="13.2" height="11.0" />
  <rect class="empty-cell" x="32.2" y="107.0" width="13.2" height="11.0" />
  <rect class="empty-cell" x="47.4" y="107.0" width="13.2" height="11.0" />
  <rect class="empty-cell" x="62.6" y="107.0" width="13.2" height="11.0" />
  <rect class="empty-cell" x="77.8" y="107.0" width="13.2" height="11.0" />
  <rect class="empty-cell" x="93.0" y="107.0" width="13.2" height="11.0" />
  <rect class="empty-cell" x="108.2" y="107.0" width="13.2" height="11.0" />
  <rect class="empty-cell" x="123.4" y="107.0" width="13.2" height="11.0" />
  <rect class="empty-cell" x="138.6" y="107.0" width="13.2" height="11.0" />
  <rect class="empty-cell" x="153.8" y="107.0" width="13.2" height="11.0" />
  <rect class="empty-cell" x="169.0" y="107.0" width="13.2" height="11.0" />
  <rect class="empty-cell" x="184.2" y="107.0" width="13.2" height="11.0" />
  <rect class="empty-cell" x="199.4" y="107.0" width="13.2" height="11.0" />
  <rect class="empty-cell" x="214.6" y="107.0" width="13.2" height="11.0" />
  <rect class="empty-cell" x="229.8" y="107.0" width="13.2" height="11.0" />
  <rect class="empty-cell" x="245.0" y="107.0" width="13.2" height="11.0" />
  <rect class="empty-cell" x="260.2" y="107.0" width="13.2" height="11.0" />
  <rect class="empty-cell" x="275.4" y="107.0" width="13.2" height="11.0" />
  <rect class="empty-cell" x="290.6" y="107.0" width="13.2" height="11.0" />
  <rect class="empty-cell" x="305.8" y="107.0" width="13.2" height="11.0" />
  <rect class="empty-cell" x="321.0" y="107.0" width="13.2" height="11.0" />
  <rect class="empty-cell" x="336.2" y="107.0" width="13.2" height="11.0" />
  <rect class="empty-cell" x="351.4" y="107.0" width="13.2" height="11.0" />
  <rect class="empty-cell" x="366.6" y="107.0" width="13.2" height="11.0" />
  <rect class="empty-cell" x="381.8" y="107.0" width="13.2" height="11.0" />
  <rect class="empty-cell" x="397.0" y="107.0" width="13.2" height="11.0" />
  <rect class="empty-cell" x="412.2" y="107.0" width="13.2" height="11.0" />
  <rect class="empty-cell" x="427.4" y="107.0" width="13.2" height="11.0" />
  <rect class="empty-cell" x="442.6" y="107.0" width="13.2" height="11.0" />
  <rect class="empty-cell" x="457.8" y="107.0" width="13.2" height="11.0" />
  <rect class="empty-cell" x="473.0" y="107.0" width="13.2" height="11.0" />
  <rect class="empty-cell" x="488.2" y="107.0" width="13.2" height="11.0" />
  <rect class="empty-cell" x="503.4" y="107.0" width="13.2" height="11.0" />
  <rect class="empty-cell" x="518.6" y="107.0" width="13.2" height="11.0" />
  <rect class="empty-cell" x="533.8" y="107.0" width="13.2" height="11.0" />
  <rect class="empty-cell" x="549.0" y="107.0" width="13.2" height="11.0" />
  <rect class="empty-cell" x="564.2" y="107.0" width="13.2" height="11.0" />
  <rect class="empty-cell" x="579.4" y="107.0" width="13.2" height="11.0" />
  <rect class="empty-cell" x="594.6" y="107.0" width="13.2" height="11.0" />
  <rect class="empty-cell" x="609.8" y="107.0" width="13.2" height="11.0" />
  <g class="p-node-0"><rect x="-1" y="-1" width="2" height="2" fill="currentColor" /></g>
  <g class="p-node-1"><rect x="-1" y="-1" width="2" height="2" fill="currentColor" /></g>
  <g class="p-node-2"><rect x="-1" y="-1" width="2" height="2" fill="currentColor" /></g>
  <g class="p-node-3"><rect x="-1" y="-1" width="2" height="2" fill="currentColor" /></g>
  <g class="p-node-4"><rect x="-1" y="-1" width="2" height="2" fill="currentColor" /></g>
  <g class="p-node-5"><rect x="-1" y="-1" width="2" height="2" fill="currentColor" /></g>
  <g class="p-node-6"><rect x="-1" y="-1" width="2" height="2" fill="currentColor" /></g>
  <g class="p-node-7"><rect x="-1" y="-1" width="2" height="2" fill="currentColor" /></g>
  <g class="p-node-8"><rect x="-1" y="-1" width="2" height="2" fill="currentColor" /></g>
  <g class="p-node-9"><rect x="-1" y="-1" width="2" height="2" fill="currentColor" /></g>
  <g class="p-node-10"><rect x="-1" y="-1" width="2" height="2" fill="currentColor" /></g>
  <g class="p-node-11"><rect x="-1" y="-1" width="2" height="2" fill="currentColor" /></g>
  <g class="p-node-12"><rect x="-1" y="-1" width="2" height="2" fill="currentColor" /></g>
  <g class="p-node-13"><rect x="-1" y="-1" width="2" height="2" fill="currentColor" /></g>
  <g class="p-node-14"><rect x="-1" y="-1" width="2" height="2" fill="currentColor" /></g>
  <g class="p-node-15"><rect x="-1" y="-1" width="2" height="2" fill="currentColor" /></g>
  <g class="p-node-16"><rect x="-1" y="-1" width="2" height="2" fill="currentColor" /></g>
  <g class="p-node-17"><rect x="-1" y="-1" width="2" height="2" fill="currentColor" /></g>
  <g class="ball-container"><circle class="ball-node" cx="0" cy="0" r="4" /></g>
  <g class="paddle-container"><use href="#paddle-graphic" /></g>
</svg>